<svg width="30" height="30" viewBox="0 0 30 30" fill="none" xmlns="http://www.w3.org/2000/svg">
<path d="M15.0005 -0.00012207C19.1419 -0.00012207 22.8925 1.67917 25.6065 4.39324C28.3218 7.10788 30.0005 10.8579 30.0005 14.9993C30.0005 19.1407 28.3212 22.8913 25.6065 25.6059C22.8925 28.32 19.1419 29.9993 15.0005 29.9993C10.8591 29.9993 7.1085 28.32 4.39385 25.6059C1.67979 22.8913 0.000488281 19.1407 0.000488281 14.9993C0.000488281 10.8579 1.6792 7.10788 4.39443 4.39324C7.1085 1.67917 10.8591 -0.00012207 15.0005 -0.00012207ZM21.8401 13.8368V16.1624C21.8401 16.7126 21.3878 17.1655 20.8376 17.1655H17.1661V20.837C17.1661 21.3878 16.7144 21.8395 16.1636 21.8395H13.8374C13.2866 21.8395 12.8349 21.3889 12.8349 20.837V17.1655H9.16338C8.61318 17.1655 8.16084 16.7143 8.16084 16.1624V13.8368C8.16084 13.2854 8.61143 12.8342 9.16338 12.8342H12.8349V9.16218C12.8349 8.61081 13.286 8.15964 13.8374 8.15964H16.1636C16.7149 8.15964 17.1661 8.6114 17.1661 9.16218V12.8342H20.8376C21.3895 12.8342 21.8401 13.2889 21.8401 13.8368ZM24.0269 5.97292C21.7177 3.66374 18.5255 2.23464 15.0005 2.23464C11.4755 2.23464 8.2833 3.66374 5.97412 5.97292C3.66436 8.28269 2.23525 11.4743 2.23525 14.9993C2.23525 18.5243 3.66436 21.7165 5.97354 24.0262C8.2833 26.3354 11.4755 27.7645 15.0005 27.7645C18.5255 27.7645 21.7177 26.3354 24.0269 24.0262C26.3366 21.7165 27.7657 18.5243 27.7657 14.9993C27.7657 11.4743 26.3366 8.28269 24.0269 5.97292Z" fill="url(#paint0_linear_409_17037)"/>
<defs>
<linearGradient id="paint0_linear_409_17037" x1="1.85142" y1="32.0145" x2="33.0685" y2="3.33973" gradientUnits="userSpaceOnUse">
<stop stop-color="#2A01FF"/>
<stop offset="0.57" stop-color="#FF1EE1"/>
<stop offset="1" stop-color="#FFB332"/>
</linearGradient>
</defs>
</svg>
