<svg width="16" height="19" viewBox="0 0 16 19" fill="none" xmlns="http://www.w3.org/2000/svg">
<path d="M1.25241 0.723633H15.0398C15.3751 0.723633 15.6455 1.03979 15.6455 1.42859V17.5173C15.6455 17.9075 15.3739 18.2222 15.0398 18.2222C14.8722 18.2222 14.7205 18.1425 14.6103 18.0143L8.13021 11.5173L1.64763 18.0499C1.39557 18.3034 1.01381 18.2721 0.794783 17.9787C0.695672 17.8462 0.647952 17.681 0.647952 17.5187H0.646729V1.42859C0.646729 1.03979 0.918366 0.723633 1.25241 0.723633ZM14.4342 2.13497H1.85931V15.9777L7.72887 10.0618C7.95157 9.83109 8.29295 9.82255 8.52543 10.0561L14.4354 15.982V2.13497H14.4342Z" fill="#7F819E"/>
</svg>
