<svg width="24" height="24" viewBox="0 0 24 24" fill="none" xmlns="http://www.w3.org/2000/svg">
<path d="M0.966797 0H22.9746C23.5098 0 23.9414 0.433594 23.9414 0.966797V23.0313C23.9414 23.5664 23.5078 23.998 22.9746 23.998C22.707 23.998 22.4648 23.8887 22.2891 23.7129L11.9453 14.8027L1.59766 23.7617C1.19531 24.1094 0.585938 24.0664 0.236328 23.6641C0.078125 23.4824 0.00195312 23.2559 0.00195312 23.0332H0V0.966797C0 0.433594 0.433594 0 0.966797 0ZM22.0078 1.93555H1.93555V20.9199L11.3047 12.8066C11.6602 12.4902 12.2051 12.4785 12.5762 12.7988L22.0098 20.9258V1.93555H22.0078Z" fill="#F401F5"/>
</svg>
