<svg width="17" height="18" viewBox="0 0 17 18" fill="none" xmlns="http://www.w3.org/2000/svg">
<path d="M8.38143 4.24043V3.1182C8.1123 3.04674 7.86677 2.90559 7.6696 2.70897C7.47242 2.51234 7.33058 2.26721 7.25836 1.99828C7.18615 1.72935 7.18612 1.44614 7.25828 1.1772C7.33043 0.908253 7.47223 0.663089 7.66936 0.466426C7.81609 0.319203 7.99043 0.20239 8.1824 0.122686C8.37436 0.0429815 8.58018 0.00195312 8.78803 0.00195313C8.99589 0.00195312 9.2017 0.0429815 9.39366 0.122686C9.58563 0.20239 9.75998 0.319203 9.9067 0.466426C10.1073 0.666467 10.2507 0.916628 10.3218 1.19087C10.393 1.46511 10.3893 1.75341 10.3112 2.02576C10.2332 2.29811 10.0835 2.54455 9.87785 2.73943C9.6722 2.93432 9.41808 3.07052 9.14193 3.13387V4.19771L9.11772 4.18632C9.07472 4.17463 9.03093 4.16607 8.9867 4.16068C8.92788 4.1573 8.86892 4.1573 8.81011 4.16068H8.79017C8.74252 4.16051 8.69491 4.16384 8.64775 4.17065C8.615 4.17065 8.57512 4.18489 8.53097 4.19628C8.48242 4.20727 8.43481 4.22203 8.38856 4.24043H8.37716H8.38143ZM5.81796 6.73413L8.70472 5.11771L8.74032 5.10347C8.77021 5.09377 8.80147 5.08896 8.83289 5.08923C8.8598 5.08895 8.88663 5.0923 8.91264 5.0992C8.9354 5.10388 8.95681 5.11362 8.97531 5.12768L11.8322 6.78112C11.9007 6.80738 11.957 6.85813 11.9902 6.92354C12.02 6.9806 12.0347 7.04433 12.033 7.10868V10.4426C12.0295 10.4973 12.0121 10.5503 11.9824 10.5964C11.9528 10.6425 11.9118 10.6802 11.8635 10.7061L8.99382 12.3738C8.97313 12.385 8.95112 12.3936 8.92831 12.3994C8.87117 12.4165 8.81028 12.4165 8.75314 12.3994C8.72501 12.3914 8.69816 12.3794 8.67339 12.3638L5.73821 10.6548C5.69116 10.6291 5.65128 10.5921 5.62219 10.5471C5.59309 10.5021 5.57569 10.4505 5.57158 10.397V7.04459C5.57188 6.97334 5.59581 6.90421 5.63963 6.84802C5.68344 6.79184 5.74466 6.75178 5.81369 6.73413H5.81796ZM8.52385 11.5492V8.94014L6.21245 7.56583V10.192L8.521 11.5492H8.52385ZM11.3964 7.60571L9.16187 8.94156V11.552L11.3964 10.2347V7.60571ZM8.83289 5.76428L6.65251 7.06595L8.84286 8.38472L10.9677 7.10298L8.83289 5.76428ZM9.16329 14.3847C9.44407 14.4543 9.70058 14.599 9.90528 14.8034C10.0525 14.9501 10.1693 15.1245 10.249 15.3164C10.3287 15.5084 10.3698 15.7142 10.3698 15.9221C10.3698 16.1299 10.3287 16.3357 10.249 16.5277C10.1693 16.7197 10.0525 16.894 9.90528 17.0407C9.75855 17.188 9.58421 17.3048 9.39224 17.3845C9.20027 17.4642 8.99446 17.5052 8.78661 17.5052C8.57875 17.5052 8.37294 17.4642 8.18097 17.3845C7.98901 17.3048 7.81466 17.188 7.66793 17.0407C7.52071 16.894 7.4039 16.7197 7.32419 16.5277C7.24449 16.3357 7.20346 16.1299 7.20346 15.9221C7.20346 15.7142 7.24449 15.5084 7.32419 15.3164C7.4039 15.1245 7.52071 14.9501 7.66793 14.8034C7.87106 14.5992 8.12616 14.4544 8.40565 14.3847V13.2738C8.43638 13.2864 8.46775 13.2973 8.49964 13.3066L8.55376 13.3208C8.59011 13.3314 8.62726 13.3391 8.66484 13.3436C8.72418 13.3533 8.78416 13.3585 8.84429 13.3593C8.90441 13.3586 8.96439 13.3534 9.02373 13.3436C9.07196 13.337 9.11958 13.3265 9.16614 13.3123V14.3847H9.16329ZM9.36837 15.3389C9.21323 15.1856 9.00396 15.0997 8.78589 15.0997C8.56783 15.0997 8.35855 15.1856 8.20342 15.3389C8.05008 15.4942 7.96411 15.7038 7.96411 15.9221C7.96411 16.1404 8.05008 16.3499 8.20342 16.5052C8.35855 16.6585 8.56783 16.7444 8.78589 16.7444C9.00396 16.7444 9.21323 16.6585 9.36837 16.5052C9.52239 16.3502 9.60884 16.1406 9.60884 15.9221C9.60884 15.7035 9.52239 15.4939 9.36837 15.3389ZM9.36837 0.997635C9.21323 0.844392 9.00396 0.758458 8.78589 0.758458C8.56783 0.758458 8.35855 0.844392 8.20342 0.997635C8.05008 1.15301 7.96411 1.36253 7.96411 1.58083C7.96411 1.79912 8.05008 2.00864 8.20342 2.16402C8.35875 2.31803 8.56858 2.40452 8.78732 2.4047C8.95023 2.40447 9.10943 2.35598 9.24482 2.26536C9.3802 2.17473 9.48571 2.04604 9.54802 1.89551C9.61034 1.74498 9.62666 1.57937 9.59494 1.41957C9.56322 1.25977 9.48488 1.11295 9.3698 0.997635H9.36837ZM15.0194 10.7445C15.4393 10.7448 15.842 10.9118 16.1388 11.2088C16.286 11.3555 16.4028 11.5299 16.4825 11.7219C16.5622 11.9138 16.6033 12.1196 16.6033 12.3275C16.6033 12.5353 16.5622 12.7412 16.4825 12.9331C16.4028 13.1251 16.286 13.2994 16.1388 13.4462C15.8893 13.6956 15.5637 13.8546 15.2136 13.8979C14.8635 13.9412 14.509 13.8664 14.2063 13.6854C13.9035 13.5043 13.6699 13.2274 13.5424 12.8984C13.415 12.5695 13.401 12.2074 13.5027 11.8696L12.5756 11.3341C12.6559 11.2587 12.7254 11.1724 12.7821 11.0778C12.809 11.0317 12.8332 10.9842 12.8547 10.9354C12.8771 10.8895 12.8957 10.8419 12.9102 10.793C12.9237 10.7504 12.9346 10.7072 12.943 10.6634L13.8901 11.2102L13.8986 11.2003C14.1959 10.903 14.599 10.736 15.0194 10.736V10.7445ZM15.6019 11.7415C15.4864 11.6266 15.3395 11.5485 15.1796 11.517C15.0198 11.4855 14.8542 11.5021 14.7038 11.5647C14.5534 11.6272 14.4249 11.7329 14.3345 11.8684C14.244 12.0039 14.1958 12.1632 14.1958 12.3261C14.1958 12.489 14.244 12.6482 14.3345 12.7837C14.4249 12.9192 14.5534 13.0249 14.7038 13.0875C14.8542 13.15 15.0198 13.1666 15.1796 13.1351C15.3395 13.1037 15.4864 13.0256 15.6019 12.9107C15.7559 12.7557 15.8424 12.546 15.8424 12.3275C15.8424 12.109 15.7559 11.8993 15.6019 11.7443V11.7415ZM2.58513 10.7445C2.99677 10.7444 3.39223 10.9048 3.68742 11.1917L4.66154 10.6221L4.67009 10.6562L4.69288 10.7431C4.71024 10.8005 4.73264 10.8563 4.75981 10.9097C4.77537 10.9484 4.79443 10.9856 4.81678 11.0208C4.87385 11.1143 4.94278 11.2 5.02186 11.2758L5.0304 11.2843L4.09046 11.8269C4.20499 12.1659 4.20132 12.5337 4.08006 12.8704C3.95879 13.2071 3.72707 13.4928 3.42266 13.6809C3.11825 13.869 2.7591 13.9485 2.40374 13.9064C2.04838 13.8643 1.71775 13.7031 1.46574 13.449C1.24407 13.2273 1.09311 12.9449 1.03195 12.6374C0.970795 12.33 1.00218 12.0113 1.12215 11.7216C1.24212 11.432 1.44528 11.1844 1.70594 11.0103C1.9666 10.8361 2.27306 10.7431 2.58655 10.7431L2.58513 10.7445ZM3.16761 11.7415C3.01259 11.5874 2.80294 11.501 2.58442 11.501C2.36589 11.501 2.15624 11.5874 2.00123 11.7415C1.84755 11.8967 1.76134 12.1062 1.76134 12.3246C1.76134 12.5431 1.84755 12.7526 2.00123 12.9078H1.99695C2.15233 13.0612 2.36185 13.1471 2.58014 13.1471C2.79844 13.1471 3.00796 13.0612 3.16334 12.9078C3.31744 12.7526 3.40392 12.5427 3.40392 12.3239C3.40392 12.1052 3.31744 11.8953 3.16334 11.74L3.16761 11.7415ZM15.0194 3.57963C15.3332 3.57895 15.6401 3.67151 15.9012 3.84557C16.1624 4.01963 16.3659 4.26733 16.4859 4.55724C16.606 4.84716 16.6373 5.16622 16.5757 5.47392C16.5142 5.78163 16.3626 6.06411 16.1402 6.28552C15.9932 6.43266 15.8185 6.54938 15.6264 6.62902C15.4342 6.70865 15.2282 6.74964 15.0201 6.74964C14.8121 6.74964 14.6061 6.70865 14.4139 6.62902C14.2217 6.54938 14.0471 6.43266 13.9 6.28552L13.8787 6.267L12.9373 6.80818C12.9111 6.68784 12.867 6.57213 12.8063 6.46496C12.7419 6.34723 12.6592 6.24051 12.5613 6.1488L13.4984 5.60762C13.4175 5.3347 13.4119 5.04495 13.4824 4.76913C13.5529 4.49331 13.6967 4.24171 13.8986 4.04105C14.0454 3.89372 14.2198 3.77685 14.412 3.69717C14.6041 3.6175 14.81 3.57658 15.018 3.57678L15.0194 3.57963ZM15.6019 4.57653C15.4469 4.42295 15.2376 4.33678 15.0194 4.33678C14.8012 4.33678 14.5919 4.42295 14.4369 4.57653C14.2821 4.73121 14.195 4.94106 14.1949 5.15993C14.1947 5.37881 14.2816 5.58877 14.4362 5.74363C14.5909 5.89849 14.8008 5.98556 15.0196 5.9857C15.2385 5.98583 15.4485 5.89901 15.6033 5.74434C15.6799 5.66777 15.7407 5.57685 15.7822 5.47678C15.8236 5.37672 15.845 5.26946 15.845 5.16115C15.845 5.05283 15.8236 4.94558 15.7822 4.84551C15.7407 4.74545 15.6799 4.65453 15.6033 4.57796L15.6019 4.57653ZM2.58513 3.57963C2.79343 3.57861 2.99985 3.61915 3.1923 3.69886C3.38475 3.77858 3.55937 3.89588 3.70594 4.0439C3.85361 4.19013 3.97071 4.36429 4.05042 4.55622C4.13013 4.74816 4.17085 4.95403 4.17021 5.16186C4.17009 5.28753 4.15527 5.41276 4.12606 5.53499L5.06316 6.10465C5.02059 6.14127 4.98106 6.18128 4.94495 6.22428C4.8679 6.31235 4.80409 6.41118 4.75554 6.51765L4.71709 6.6031C4.7 6.65295 4.68433 6.70137 4.67151 6.74552L3.77572 6.20149C3.75396 6.228 3.73066 6.2532 3.70594 6.27697C3.56242 6.43687 3.38786 6.56589 3.1929 6.65619C2.99793 6.74648 2.78663 6.79615 2.57185 6.80219C2.35707 6.80822 2.14332 6.77048 1.94359 6.69128C1.74386 6.61207 1.56233 6.49305 1.41007 6.34146C1.2578 6.18987 1.13797 6.00888 1.05788 5.80951C0.97778 5.61013 0.939092 5.39654 0.944167 5.18174C0.949243 4.96694 0.997975 4.75542 1.0874 4.56005C1.17682 4.36468 1.30506 4.18955 1.46432 4.04532C1.6111 3.89799 1.78556 3.78112 1.97767 3.70145C2.16977 3.62177 2.37573 3.58085 2.5837 3.58105L2.58513 3.57963ZM3.16761 4.57653C3.01223 4.4232 2.80271 4.33723 2.58442 4.33723C2.36612 4.33723 2.15661 4.4232 2.00123 4.57653H1.99695C1.84362 4.73191 1.75765 4.94143 1.75765 5.15972C1.75765 5.37802 1.84362 5.58754 1.99695 5.74292C2.11228 5.85857 2.25936 5.93738 2.41953 5.96933C2.5797 6.00129 2.74576 5.98495 2.89664 5.92241C3.04752 5.85986 3.17642 5.75391 3.26701 5.618C3.35759 5.48209 3.40577 5.32234 3.40544 5.15901C3.40582 5.05096 3.38488 4.94389 3.34382 4.84395C3.30277 4.744 3.2424 4.65312 3.16618 4.57653H3.16761Z" fill="#7F819E"/>
</svg>
