<svg width="24" height="24" viewBox="0 0 24 24" fill="none" xmlns="http://www.w3.org/2000/svg">
<path d="M12.0002 0C15.3134 0 18.314 1.34346 20.4852 3.51476C22.6575 5.68652 24.0005 8.68658 24.0005 11.9998C24.0005 15.313 22.657 18.3135 20.4852 20.4852C18.314 22.6565 15.3134 24 12.0002 24C8.68705 24 5.68652 22.6565 3.51476 20.4852C1.34346 18.3135 0 15.313 0 11.9998C0 8.68658 1.34299 5.68652 3.51522 3.51476C5.68652 1.34346 8.68705 0 12.0002 0ZM17.4721 11.0697V12.9303C17.4721 13.3704 17.1102 13.7328 16.67 13.7328H13.7328V16.67C13.7328 17.1106 13.3714 17.4721 12.9307 17.4721H11.0697C10.6291 17.4721 10.2677 17.1116 10.2677 16.67V13.7328H7.33046C6.89029 13.7328 6.52841 13.3718 6.52841 12.9303V11.0697C6.52841 10.6286 6.88889 10.2677 7.33046 10.2677H10.2677V7.32999C10.2677 6.88888 10.6286 6.52794 11.0697 6.52794H12.9307C13.3718 6.52794 13.7328 6.88935 13.7328 7.32999V10.2677H16.67C17.1116 10.2677 17.4721 10.6315 17.4721 11.0697ZM19.2215 4.77853C17.3741 2.93115 14.8203 1.78785 12.0002 1.78785C9.18018 1.78785 6.62638 2.93115 4.779 4.77853C2.93115 6.62638 1.78785 9.17971 1.78785 11.9998C1.78785 14.8198 2.93115 17.3736 4.77853 19.2215C6.62638 21.0688 9.18018 22.2122 12.0002 22.2122C14.8203 22.2122 17.3741 21.0688 19.2215 19.2215C21.0693 17.3736 22.2126 14.8198 22.2126 11.9998C22.2126 9.17971 21.0693 6.62638 19.2215 4.77853Z" fill="#F400F5"/>
</svg>
