<svg width="19" height="19" viewBox="0 0 19 19" fill="none" xmlns="http://www.w3.org/2000/svg">
<path d="M12.6009 15.1064H5.51507C5.19847 15.1064 4.84418 14.8577 4.73864 14.5562L1.61786 5.82702C1.17311 4.57569 1.69324 4.19125 2.76366 4.96013L5.70352 7.06327C6.1935 7.40248 6.75132 7.22911 6.96239 6.67882L8.2891 3.14345C8.71123 2.01273 9.41227 2.01273 9.83441 3.14345L11.1611 6.67882C11.3722 7.22911 11.93 7.40248 12.4124 7.06327L15.1714 5.09582C16.3473 4.25155 16.9127 4.68122 16.4303 6.04562L13.3849 14.5712C13.2718 14.8577 12.9175 15.1064 12.6009 15.1064Z" fill="#FF94C7" stroke="white" stroke-width="1.17988" stroke-linecap="round" stroke-linejoin="round"/>
<path d="M4.91211 17.3828H13.204" stroke="white" stroke-width="1.17988" stroke-linecap="round" stroke-linejoin="round"/>
<path d="M7.17346 11.3521H10.9425" stroke="white" stroke-width="1.17988" stroke-linecap="round" stroke-linejoin="round"/>
</svg>
