<svg width="18" height="18" viewBox="0 0 18 18" fill="none" xmlns="http://www.w3.org/2000/svg">
<path d="M9.2501 17.3334C7.0001 17.3334 4.83343 16.5001 3.16677 14.8334C-0.166568 11.5001 -0.166568 6.25008 3.08343 3.00008C4.2501 1.75008 5.83343 0.916744 7.58343 0.666744C7.91677 0.583411 8.2501 0.750077 8.41677 1.08341C8.58343 1.41674 8.58343 1.75008 8.33343 2.00008C6.5001 4.08341 6.66677 7.33341 8.66677 9.33341C10.6668 11.3334 13.8334 11.5001 15.9168 9.66674C16.1668 9.41674 16.5834 9.41674 16.8334 9.58341C17.1668 9.75008 17.3334 10.0834 17.2501 10.4167C17.0001 12.1667 16.1668 13.6667 15.0001 14.9167C13.4168 16.5001 11.3334 17.3334 9.2501 17.3334Z" fill="#0841D4"/>
</svg>
