<svg width="20" height="20" viewBox="0 0 20 20" fill="none" xmlns="http://www.w3.org/2000/svg">
<path d="M17.7252 7.28594L16.2048 5.76558L11.3095 10.6501V0.0507812H9.15298V10.6501L4.25765 5.76558L2.7373 7.28594L10.2312 14.7799L17.7252 7.28594Z" fill="#7F819E"/>
<path d="M17.7791 9.75517V14.0682C17.7791 14.9262 17.4383 15.7489 16.8317 16.3556C16.225 16.9622 15.4022 17.303 14.5443 17.303H5.91818C5.06026 17.303 4.23748 16.9622 3.63084 16.3556C3.0242 15.7489 2.68339 14.9262 2.68339 14.0682V9.75517H0.526855V14.0682C0.526855 15.4981 1.09487 16.8694 2.10594 17.8805C3.11701 18.8916 4.48831 19.4596 5.91818 19.4596H14.5443C15.9742 19.4596 17.3455 18.8916 18.3566 17.8805C19.3676 16.8694 19.9356 15.4981 19.9356 14.0682V9.75517H17.7791Z" fill="#7F819E"/>
</svg>
