<svg width="19" height="25" viewBox="0 0 19 25" fill="none" xmlns="http://www.w3.org/2000/svg">
<path fill-rule="evenodd" clip-rule="evenodd" d="M7.21666 1.42672C5.95305 2.20167 4.91924 2.85743 4.91946 2.8841C4.92002 2.95294 7.95217 4.7608 8.05979 4.75639C8.10874 4.75446 8.46388 4.562 8.84894 4.32875L9.54917 3.90474L10.3139 4.36752L11.0786 4.83038L12.3309 4.16788C14.2179 3.1696 14.4139 3.0602 14.3832 3.02345C14.3425 2.97468 13.6656 2.54661 11.8293 1.40846C10.9419 0.858374 10.0805 0.319035 9.91515 0.2099C9.74981 0.100765 9.59196 0.0129733 9.56439 0.0146727C9.53681 0.0163721 8.4803 0.651798 7.21666 1.42672ZM1.67447 4.8055L0.359063 5.60542V9.11612C0.359063 11.047 0.376335 12.6268 0.397522 12.6268C0.418636 12.6268 1.06582 12.2965 1.83567 11.8928L3.23541 11.1589V7.45835L3.91941 7.89708C4.4465 8.23485 4.9739 8.57194 5.50161 8.90833L6.39979 9.48085L6.79945 9.26808C7.05011 9.13443 7.30026 8.99948 7.54991 8.86323C7.74282 8.75746 8.21637 8.50636 8.60221 8.30511C8.98806 8.10377 9.34523 7.90132 9.39587 7.85517C9.46315 7.79388 8.64277 7.26016 6.36155 5.88101C4.642 4.84142 3.17992 3.99414 3.1125 3.9982C3.04507 4.00226 2.39796 4.3655 1.67447 4.8055ZM14.6203 5.03013C13.7244 5.50628 12.9908 5.91488 12.99 5.93818C12.9892 5.96145 13.4775 6.30326 14.0751 6.69763C14.6727 7.09209 15.1617 7.43591 15.1617 7.46181C15.1617 7.48765 14.6328 7.7893 13.9866 8.13229C13.3402 8.47519 11.7066 9.34378 10.3561 10.0625L5.83111 12.4705C4.69286 13.0763 3.66686 13.6223 3.55111 13.684C1.22617 14.9231 0.587129 15.2669 0.499372 15.326C0.411125 15.3854 0.391137 15.7306 0.37543 17.4632L0.356689 19.5296L1.53299 20.2353L2.70926 20.9408L4.34034 20.0742C5.23746 19.5976 5.97142 19.1827 5.97142 19.1521C5.97142 19.1216 5.80565 18.9945 5.60312 18.8694C5.4005 18.7443 4.98224 18.4675 4.67356 18.2541C4.3649 18.0406 4.05713 17.8448 3.98956 17.8188C3.92201 17.7929 3.86772 17.7476 3.86882 17.718C3.86994 17.6886 4.5882 17.2869 5.46484 16.8254C7.16756 15.9291 8.47061 15.2383 11.2681 13.749C12.519 13.0831 13.7701 12.4177 15.0213 11.7526C16.121 11.1683 17.3996 10.4858 17.8626 10.236L18.7045 9.78184L18.7232 7.69186L18.742 5.60196L17.5489 4.88102C16.8927 4.48454 16.3318 4.16111 16.3024 4.1623C16.273 4.16339 15.5161 4.55387 14.6203 5.03013ZM18.3848 12.57C18.209 12.6711 17.8617 12.8604 17.6131 12.9906C17.3645 13.1208 16.8927 13.3714 16.5647 13.5476L15.9684 13.8678L15.9548 15.7026C15.9473 16.7118 15.9157 17.5329 15.8847 17.5276C15.8141 17.5153 14.6965 16.8405 13.573 16.1317C12.7622 15.6203 12.7112 15.5999 12.5207 15.711C12.4105 15.7753 11.7522 16.1229 11.0576 16.4837C10.3631 16.8444 9.77219 17.163 9.7444 17.1919C9.71668 17.2207 11.1145 18.1127 12.8508 19.1741L16.0075 21.104L17.356 20.2827C18.0976 19.8311 18.7282 19.4191 18.7573 19.3673C18.8227 19.2508 18.8171 12.3702 18.7516 12.3795C18.7257 12.3831 18.5606 12.4689 18.3848 12.57ZM10.9173 20.6461C10.6834 20.7645 10.4496 20.8831 10.2158 21.0018C9.5098 21.3614 9.64816 21.3733 8.80826 20.8811C8.24886 20.5532 8.00773 20.4521 7.90306 20.5012C7.82455 20.538 7.14889 20.8959 6.40148 21.2964C5.65411 21.697 5.01669 22.0247 4.98498 22.0247C4.67141 22.0247 5.19271 22.3914 7.20433 23.5861L9.56348 24.987L10.5561 24.41C11.102 24.0927 12.2032 23.4573 13.0031 22.998C13.803 22.5386 14.4476 22.1508 14.4356 22.1362C14.4234 22.1216 13.7532 21.7164 12.946 21.2357L11.4786 20.3619L10.9173 20.6461Z" fill="white"/>
</svg>
