<svg width="19" height="19" viewBox="0 0 19 19" fill="none" xmlns="http://www.w3.org/2000/svg">
<path d="M9.55981 18.2236C8.76488 18.2236 7.99568 18.1178 7.25222 17.9062C6.51447 17.7003 5.81962 17.403 5.16766 17.0141C4.5157 16.6309 3.92378 16.1734 3.39192 15.6415C2.86006 15.1097 2.39968 14.5177 2.01079 13.8658C1.62762 13.2138 1.33024 12.519 1.11864 11.7812C0.912756 11.0378 0.809814 10.2686 0.809814 9.47363C0.809814 8.67298 0.912756 7.90378 1.11864 7.16603C1.33024 6.42829 1.62762 5.73344 2.01079 5.08148C2.39968 4.42952 2.86006 3.8376 3.39192 3.30574C3.92378 2.77388 4.51284 2.31636 5.15908 1.93319C5.81104 1.5443 6.50589 1.24692 7.24364 1.04103C7.9871 0.829433 8.7563 0.723633 9.55124 0.723633C10.3519 0.723633 11.1211 0.829433 11.8588 1.04103C12.6023 1.24692 13.2972 1.5443 13.9434 1.93319C14.5954 2.31636 15.1873 2.77388 15.7191 3.30574C16.2567 3.8376 16.7171 4.42952 17.1003 5.08148C17.4891 5.73344 17.7865 6.42829 17.9924 7.16603C18.204 7.90378 18.3098 8.67298 18.3098 9.47363C18.3098 10.2686 18.204 11.0378 17.9924 11.7812C17.7865 12.519 17.4891 13.2138 17.1003 13.8658C16.7171 14.5177 16.2596 15.1097 15.7277 15.6415C15.1958 16.1734 14.6039 16.6309 13.952 17.0141C13.3 17.403 12.6052 17.7003 11.8674 17.9062C11.1297 18.1178 10.3605 18.2236 9.55981 18.2236ZM9.55981 16.7653C10.3719 16.7653 11.1411 16.6423 11.8674 16.3964C12.5994 16.1505 13.2686 15.8045 13.8748 15.3584C14.481 14.9124 15.0043 14.3862 15.4446 13.78C15.8907 13.1738 16.2338 12.5075 16.474 11.7812C16.7199 11.0492 16.8429 10.28 16.8429 9.47363C16.8429 8.66154 16.7199 7.89234 16.474 7.16603C16.2281 6.43401 15.8821 5.76489 15.436 5.15868C14.9957 4.55247 14.4724 4.02633 13.8662 3.58025C13.26 3.13417 12.5909 2.79103 11.8588 2.55084C11.1325 2.30492 10.3633 2.18197 9.55124 2.18197C8.73914 2.18197 7.96994 2.30492 7.24364 2.55084C6.51733 2.79103 5.85107 3.13417 5.24486 3.58025C4.63865 4.02633 4.11251 4.55247 3.66643 5.15868C3.22607 5.76489 2.88294 6.43401 2.63702 7.16603C2.39682 7.89234 2.27673 8.66154 2.27673 9.47363C2.27673 10.2857 2.39682 11.0578 2.63702 11.7898C2.88294 12.5161 3.22607 13.1824 3.66643 13.7886C4.11251 14.3948 4.63865 14.9209 5.24486 15.367C5.85107 15.8131 6.51733 16.1562 7.24364 16.3964C7.97566 16.6423 8.74772 16.7653 9.55981 16.7653ZM7.01202 8.693C6.82901 8.693 6.65744 8.63581 6.49731 8.52143C6.3429 8.40705 6.21709 8.25835 6.11986 8.07535C6.02836 7.88662 5.98261 7.68646 5.98261 7.47486C5.98261 7.25182 6.02836 7.0488 6.11986 6.86579C6.21709 6.68278 6.3429 6.53695 6.49731 6.42829C6.65173 6.31391 6.82329 6.25672 7.01202 6.25672C7.20075 6.25672 7.37231 6.31105 7.52673 6.41971C7.68686 6.52837 7.81267 6.67706 7.90418 6.86579C8.0014 7.0488 8.05001 7.25182 8.05001 7.47486C8.05001 7.69218 8.0014 7.8952 7.90418 8.08393C7.80695 8.26693 7.67828 8.41563 7.51815 8.53C7.36374 8.63867 7.19503 8.693 7.01202 8.693ZM12.1162 8.693C11.9332 8.693 11.7616 8.63867 11.6015 8.53C11.4413 8.41563 11.3127 8.26693 11.2155 8.08393C11.1182 7.8952 11.0696 7.69218 11.0696 7.47486C11.0696 7.25182 11.1154 7.0488 11.2069 6.86579C11.3041 6.67706 11.4328 6.52837 11.5929 6.41971C11.753 6.31105 11.9275 6.25672 12.1162 6.25672C12.3049 6.25672 12.4765 6.31391 12.6309 6.42829C12.7853 6.53695 12.9083 6.68278 12.9998 6.86579C13.0913 7.0488 13.137 7.25182 13.137 7.47486C13.137 7.68646 13.0884 7.88662 12.9912 8.07535C12.8997 8.25835 12.7767 8.40705 12.6223 8.52143C12.4679 8.63581 12.2992 8.693 12.1162 8.693ZM9.55981 15.3499C8.82207 15.3499 8.13008 15.2269 7.48383 14.981C6.83759 14.7294 6.26284 14.3862 5.75957 13.9516C5.2563 13.5112 4.84454 13.0051 4.52428 12.4332C4.20401 11.8613 4.00385 11.2551 3.92378 10.6146C3.88947 10.3572 3.9438 10.1742 4.08678 10.0655C4.22975 9.95117 4.41562 9.92829 4.64437 9.99692C5.47934 10.2428 6.29429 10.4316 7.08923 10.5631C7.88416 10.6946 8.70769 10.7604 9.55981 10.7604C10.4119 10.7604 11.2355 10.6946 12.0304 10.5631C12.8311 10.4316 13.646 10.2428 14.4753 9.99692C14.704 9.92829 14.8899 9.94831 15.0329 10.057C15.1758 10.1656 15.2302 10.3515 15.1958 10.6146C15.1158 11.2551 14.9156 11.8613 14.5954 12.4332C14.2808 13.0051 13.869 13.5112 13.3601 13.9516C12.8568 14.3862 12.282 14.7294 11.6358 14.981C10.9896 15.2269 10.2976 15.3499 9.55981 15.3499ZM9.55124 12.6905C10.2318 12.6905 10.9209 12.6477 11.6186 12.5619C12.3163 12.4704 12.954 12.3531 13.5316 12.2102C13.6117 12.1816 13.6746 12.1501 13.7204 12.1158C13.7661 12.0758 13.809 12.0271 13.849 11.97C13.9062 11.8613 13.9691 11.7298 14.0378 11.5753C14.1121 11.4209 14.1722 11.2522 14.2179 11.0692C14.2293 11.0063 14.2036 10.9806 14.1407 10.992C13.4487 11.1807 12.711 11.3352 11.9275 11.4552C11.1497 11.5696 10.3576 11.6268 9.55124 11.6268C8.74486 11.6268 7.95279 11.5696 7.17501 11.4552C6.39723 11.3352 5.65949 11.1807 4.96178 10.992C4.89887 10.9806 4.87313 11.0063 4.88457 11.0692C4.93604 11.2579 4.99323 11.4267 5.05614 11.5753C5.12477 11.724 5.19053 11.8556 5.25344 11.97C5.32207 12.0901 5.43073 12.1701 5.57942 12.2102C6.15704 12.3531 6.79184 12.4704 7.48383 12.5619C8.18155 12.6477 8.87068 12.6905 9.55124 12.6905Z" fill="#7F819E"/>
</svg>
