<svg width="24" height="24" viewBox="0 0 24 24" fill="none" xmlns="http://www.w3.org/2000/svg">
<path fill-rule="evenodd" clip-rule="evenodd" d="M10.9125 9.3549L10.4124 7.06349C12.0631 7.37214 14.4776 10.0269 16.011 12.1288C14.9191 12.8223 14.2529 13.8205 14.2529 15.0043C14.2526 15.1725 14.2663 15.3404 14.2939 15.5063C13.537 15.2408 12.7402 15.1067 11.9381 15.1098C10.8857 15.0965 9.84521 15.3335 8.9024 15.8013C7.70688 16.4284 6.96456 17.4286 6.96456 18.6475C6.96319 18.9806 7.02073 19.3112 7.13452 19.6242C7.11303 19.6868 7.09154 19.7512 7.07396 19.8196C7.00297 20.064 6.96615 20.3171 6.96456 20.5717C6.96385 20.8944 7.0187 21.2149 7.1267 21.5191L7.08373 21.6519C7.0072 21.9054 6.96708 22.1685 6.96456 22.4333C6.96274 22.9988 7.1301 23.5519 7.44512 24.0215H7.29861C4.9779 23.9023 1.38939 23.9062 0.461494 21.525C-1.06025 17.6727 1.71171 13.0938 4.23949 10.2906C4.565 9.92959 4.90928 9.58596 5.27091 9.26114C6.19099 8.4524 7.18335 7.50302 8.3652 7.09279L7.22242 9.22207L8.88286 7.02052H9.75801L10.9125 9.3549ZM14.7882 21.9664C14.876 22.1079 14.9233 22.2707 14.9249 22.4372C14.9249 23.3046 13.5829 24 11.9283 24C10.2737 24 8.92975 23.2967 8.92975 22.4372C8.93181 22.2708 8.97908 22.1081 9.06649 21.9664C9.45718 22.6052 10.5863 23.0682 11.9283 23.0682C13.2703 23.0682 14.4092 22.6052 14.7882 21.9664ZM23.4049 21.4078C23.5142 21.5837 23.5724 21.7866 23.5729 21.9938C23.5729 23.0565 21.9261 23.9199 19.8984 23.9199C17.8707 23.9199 16.2357 23.0467 16.2357 21.984C16.2358 21.7768 16.294 21.5738 16.4037 21.398C16.8706 22.1794 18.2634 22.7478 19.9082 22.7478C21.553 22.7478 22.9478 22.1794 23.4244 21.398L23.4049 21.4078ZM23.4049 19.0792C23.5137 19.2554 23.5719 19.4582 23.5729 19.6653C23.5729 20.7279 21.9261 21.5914 19.8984 21.5914C17.8707 21.5914 16.2357 20.724 16.2357 19.6555C16.2363 19.4484 16.2944 19.2455 16.4037 19.0695C16.8706 19.8508 18.2634 20.4193 19.9082 20.4193C21.553 20.4193 22.9478 19.8508 23.4244 19.0695L23.4049 19.0792ZM21.2248 14.2268L21.1819 14.7054L19.3808 14.5492C19.53 14.7401 19.6354 14.9615 19.6894 15.1977L19.2557 15.1586C19.2137 15.0072 19.1478 14.8634 19.0604 14.7328C18.971 14.5872 18.8414 14.4705 18.6873 14.3968L18.7205 14.0061L21.2268 14.2229L21.2248 14.2268ZM19.8984 13.4787C21.5647 13.4787 22.9165 14.01 22.9165 14.6625C22.9165 15.3149 21.5647 15.8404 19.8984 15.8404C18.2321 15.8404 16.8803 15.3149 16.8803 14.6683C16.8803 14.0217 18.2321 13.4845 19.8984 13.4845V13.4787ZM19.8984 13.088C21.9261 13.088 23.5729 13.9514 23.5729 15.0141C23.5729 16.0768 21.9261 16.9402 19.8984 16.9402C17.8707 16.9402 16.2357 16.0748 16.2357 15.0121C16.2357 13.9494 17.8805 13.086 19.9082 13.086L19.8984 13.088ZM23.4147 16.821C23.5143 16.9884 23.5682 17.1791 23.5709 17.3739C23.5709 18.4365 21.9242 19.3 19.8965 19.3C17.8688 19.3 16.2357 18.4346 16.2357 17.3719C16.2332 17.1774 16.2831 16.9857 16.3802 16.8171C16.8334 17.6102 18.236 18.1845 19.8965 18.1845C21.5569 18.1845 22.9615 17.5985 23.4127 16.8171L23.4147 16.821ZM13.0105 18.0068L12.9754 18.3975L11.5044 18.2685C11.626 18.4245 11.712 18.6052 11.7564 18.7979L11.4028 18.7706C11.3688 18.6467 11.3147 18.5292 11.2426 18.4229C11.1689 18.3048 11.0632 18.21 10.9379 18.1494L10.9613 17.829L13.0066 18.0068H13.0105ZM11.9381 17.4032C13.3055 17.4032 14.4014 17.8368 14.4014 18.3799C14.4014 18.923 13.2977 19.3566 11.9381 19.3566C10.5785 19.3566 9.47476 18.923 9.47476 18.3799C9.47476 17.8368 10.5707 17.4032 11.9381 17.4032ZM11.9381 17.0828C13.5927 17.0828 14.9347 17.788 14.9347 18.6553C14.9347 19.5227 13.5927 20.2181 11.9381 20.2181C10.2835 20.2181 8.93951 19.5149 8.93951 18.6553C8.93951 17.7958 10.2737 17.075 11.9381 17.075V17.0828ZM14.8077 20.1302C14.8893 20.2667 14.9331 20.4224 14.9347 20.5814C14.9347 21.4468 13.5927 22.1442 11.9381 22.1442C10.2835 22.1442 8.93951 21.439 8.93951 20.5814C8.94079 20.4224 8.98463 20.2666 9.06649 20.1302C9.43569 20.7768 10.5804 21.2495 11.9381 21.2495C13.2957 21.2495 14.4385 20.7768 14.8077 20.1302ZM8.29292 3.98288C7.93739 2.93388 7.61702 1.87315 7.34744 0.798744C8.35543 -0.306914 12.2506 -0.160405 13.37 0.781163L12.3288 3.24448C12.8875 2.50998 13.075 2.20914 13.4071 1.80087C13.5447 1.8933 13.6753 1.99582 13.7978 2.10756C14.0927 2.37519 14.3565 2.67016 14.4092 3.08429C14.4257 3.23228 14.4092 3.38208 14.3609 3.52292C14.3126 3.66377 14.2337 3.79217 14.1299 3.89889L11.7603 6.66889C11.4553 6.62015 11.1552 6.54432 10.8637 6.44229C10.9985 6.12388 11.1626 5.77421 11.2973 5.46556L10.43 6.40127C9.65333 6.20614 8.83187 6.30638 8.12492 6.68257L5.7124 3.77777C5.58246 3.63536 5.50824 3.45087 5.50338 3.25815C5.50338 2.55881 6.54848 1.95519 7.09545 1.72664L8.29292 3.98288Z" fill="url(#paint0_linear_706_9812)"/>
<defs>
<linearGradient id="paint0_linear_706_9812" x1="1.48005" y1="25.6337" x2="26.4092" y2="3.1688" gradientUnits="userSpaceOnUse">
<stop stop-color="#2A01FF"/>
<stop offset="0.57" stop-color="#FF1EE1"/>
<stop offset="1" stop-color="#FFB332"/>
</linearGradient>
</defs>
</svg>
