<svg width="18" height="18" viewBox="0 0 18 18" fill="none" xmlns="http://www.w3.org/2000/svg">
<path d="M0.800305 15.4825H7.50131C8.52816 16.7815 10.1173 17.6166 11.8979 17.6166C14.9869 17.6166 17.5 15.1035 17.5 12.0145C17.5 8.92547 14.9869 6.41235 11.8979 6.41235C10.0578 6.41235 8.42214 7.30421 7.40026 8.67828C6.98607 8.59142 6.56293 8.5465 6.13567 8.5465C2.75246 8.5465 0 11.299 0 14.6822C0 15.1242 0.358323 15.4825 0.800305 15.4825ZM11.8979 8.01296C14.1043 8.01296 15.8994 9.80805 15.8994 12.0145C15.8994 14.2209 14.1043 16.016 11.8979 16.016C9.69143 16.016 7.89634 14.2209 7.89634 12.0145C7.89634 9.80805 9.69143 8.01296 11.8979 8.01296Z" fill="#7F819E"/>
<path d="M6.13559 0.25C4.28945 0.25 2.7876 1.75191 2.7876 3.598C2.7876 5.44409 4.28945 6.94588 6.13559 6.94588C7.98168 6.94588 9.48354 5.44409 9.48354 3.598C9.48354 1.75191 7.98168 0.25 6.13559 0.25Z" fill="#7F819E"/>
<path d="M10.2974 12.8147H11.0977V13.615C11.0977 14.057 11.456 14.4154 11.898 14.4154C12.34 14.4154 12.6983 14.057 12.6983 13.615V12.8147H13.4986C13.9406 12.8147 14.2989 12.4564 14.2989 12.0144C14.2989 11.5725 13.9406 11.2141 13.4986 11.2141H12.6983V10.4138C12.6983 9.97185 12.34 9.61353 11.898 9.61353C11.456 9.61353 11.0977 9.97185 11.0977 10.4138V11.2141H10.2974C9.85539 11.2141 9.49707 11.5725 9.49707 12.0144C9.49707 12.4564 9.85539 12.8147 10.2974 12.8147Z" fill="#7F819E"/>
</svg>
