<svg width="18" height="18" viewBox="0 0 18 18" fill="none" xmlns="http://www.w3.org/2000/svg">
<g clip-path="url(#clip0_53_17342)">
<path d="M15.5634 3.29817C15.198 2.93259 14.7641 2.64258 14.2866 2.44472C13.8091 2.24686 13.2973 2.14502 12.7804 2.14502C12.2635 2.14502 11.7517 2.24686 11.2742 2.44472C10.7966 2.64258 10.3628 2.93259 9.99737 3.29817L9.23901 4.05652L8.48066 3.29817C7.74255 2.56006 6.74147 2.1454 5.69763 2.1454C4.65379 2.1454 3.65271 2.56006 2.91461 3.29817C2.1765 4.03627 1.76184 5.03736 1.76184 6.08119C1.76184 7.12503 2.1765 8.12611 2.91461 8.86422L3.67296 9.62257L9.23901 15.1886L14.8051 9.62257L15.5634 8.86422C15.929 8.49881 16.219 8.06495 16.4169 7.58743C16.6147 7.10991 16.7166 6.59808 16.7166 6.08119C16.7166 5.5643 16.6147 5.05248 16.4169 4.57496C16.219 4.09744 15.929 3.66358 15.5634 3.29817Z" fill="#F5007B" stroke="#F5007B" stroke-width="2" stroke-linecap="round" stroke-linejoin="round"/>
</g>
<defs>
<clipPath id="clip0_53_17342">
<rect width="17.1703" height="17.1703" fill="white" transform="translate(0.653809)"/>
</clipPath>
</defs>
</svg>
