<svg width="24" height="21" viewBox="0 0 24 21" fill="none" xmlns="http://www.w3.org/2000/svg">
<g clip-path="url(#clip0_53_16280)">
<path d="M7.15956 0.0306028C8.23484 0.0527619 9.76733 0.681739 10.9358 1.94481C11.7503 2.82435 12.2075 2.86867 13.0812 1.97208C14.0006 1.00175 15.2009 0.34847 16.5109 0.105431C17.8209 -0.137607 19.1737 0.0420145 20.3762 0.618671C22.5928 1.66356 24.1287 4.3056 23.9916 6.88117C23.895 8.68799 23.0687 10.1744 21.8562 11.4476C19.0927 14.3454 16.3167 17.2295 13.5283 20.0999C12.37 21.2931 11.6825 21.2931 10.5378 20.1221C7.67603 17.1766 4.79563 14.2482 2.00666 11.2346C0.0457502 9.11753 -0.606194 6.61015 0.626573 3.88117C1.74927 1.39253 3.68648 -7.90261e-05 7.15956 0.0306028Z" fill="#E95D89"/>
</g>
<defs>
<clipPath id="clip0_53_16280">
<rect width="24" height="21" fill="white"/>
</clipPath>
</defs>
</svg>
