<svg width="18" height="18" viewBox="0 0 18 18" fill="none" xmlns="http://www.w3.org/2000/svg">
<path d="M14 9.625L12.4444 8.125L10.8889 9.625L8.96875 7L7 9.625H10.8889H14Z" fill="#7F819E"/>
<path fill-rule="evenodd" clip-rule="evenodd" d="M3.5 1.75C3.5 0.783502 4.2835 0 5.25 0H15.75C16.7165 0 17.5 0.783501 17.5 1.75V12.25C17.5 13.2165 16.7165 14 15.75 14H14V15.75C14 16.7165 13.2165 17.5 12.25 17.5H1.75C0.783502 17.5 0 16.7165 0 15.75V5.25C0 4.2835 0.783501 3.5 1.75 3.5H3.5V1.75ZM5.25 14H12.25V15.75H1.75V5.25L3.5 5.25V12.25C3.5 13.2165 4.2835 14 5.25 14ZM15.75 1.75L5.25 1.75V12.25H15.75V1.75ZM14 4.8125C14 5.53737 13.4124 6.125 12.6875 6.125C11.9626 6.125 11.375 5.53737 11.375 4.8125C11.375 4.08763 11.9626 3.5 12.6875 3.5C13.4124 3.5 14 4.08763 14 4.8125ZM8.97395 6.12502C8.6967 6.12336 8.43507 6.2532 8.26872 6.475L6.29997 9.1C6.10112 9.36514 6.06913 9.71988 6.21735 10.0163C6.36557 10.3127 6.66855 10.5 6.99997 10.5H14C14.3568 10.5 14.6778 10.2834 14.8114 9.95249C14.9449 9.62162 14.8642 9.24281 14.6073 8.99514L13.0518 7.49514C12.7128 7.16829 12.176 7.16829 11.837 7.49514L11.0032 8.29922L9.67495 6.48341C9.51126 6.25963 9.2512 6.12667 8.97395 6.12502ZM9.16471 8.75H8.74997L8.95993 8.47005L9.16471 8.75Z" fill="#7F819E"/>
</svg>
