<svg width="20" height="20" viewBox="0 0 20 20" fill="none" xmlns="http://www.w3.org/2000/svg">
<path d="M9.99992 4.3335C6.99992 4.3335 4.58325 6.75016 4.58325 9.75016C4.58325 12.7502 6.99992 15.1668 9.99992 15.1668C12.9999 15.1668 15.4166 12.7502 15.4166 9.75016C15.4166 6.75016 12.9999 4.3335 9.99992 4.3335Z" fill="#0841D4"/>
<path d="M9.99984 3.8335C10.4998 3.8335 10.8332 3.50016 10.8332 3.00016V1.66683C10.8332 1.16683 10.4998 0.833496 9.99984 0.833496C9.49984 0.833496 9.1665 1.16683 9.1665 1.66683V3.00016C9.1665 3.41683 9.49984 3.8335 9.99984 3.8335Z" fill="#0841D4"/>
<path d="M4.41667 5.58333C4.58333 5.75 4.83333 5.83333 5 5.83333C5.16667 5.83333 5.41667 5.75 5.58333 5.58333C5.91667 5.25 5.91667 4.75 5.58333 4.41667L4.66667 3.5C4.33333 3.16667 3.83333 3.16667 3.5 3.5C3.16667 3.83333 3.16667 4.33333 3.5 4.66667L4.41667 5.58333Z" fill="#0841D4"/>
<path d="M3.83325 10.0003C3.83325 9.50033 3.49992 9.16699 2.99992 9.16699H1.66659C1.16659 9.16699 0.833252 9.50033 0.833252 10.0003C0.833252 10.5003 1.16659 10.8337 1.66659 10.8337H2.99992C3.41659 10.8337 3.83325 10.5003 3.83325 10.0003Z" fill="#0841D4"/>
<path d="M4.41667 14.417L3.5 15.3337C3.16667 15.667 3.16667 16.167 3.5 16.5003C3.66667 16.667 3.91667 16.7503 4.08333 16.7503C4.25 16.7503 4.5 16.667 4.66667 16.5003L5.58333 15.5837C5.91667 15.2503 5.91667 14.7503 5.58333 14.417C5.25 14.0837 4.75 14.0837 4.41667 14.417Z" fill="#0841D4"/>
<path d="M9.99984 16.167C9.49984 16.167 9.1665 16.5003 9.1665 17.0003V18.3337C9.1665 18.8337 9.49984 19.167 9.99984 19.167C10.4998 19.167 10.8332 18.8337 10.8332 18.3337V17.0003C10.8332 16.5837 10.4998 16.167 9.99984 16.167Z" fill="#0841D4"/>
<path d="M15.5832 14.417C15.2498 14.0837 14.7498 14.0837 14.4165 14.417C14.0832 14.7503 14.0832 15.2503 14.4165 15.5837L15.3332 16.5003C15.4998 16.667 15.7498 16.7503 15.9165 16.7503C16.0832 16.7503 16.3332 16.667 16.4998 16.5003C16.8332 16.167 16.8332 15.667 16.4998 15.3337L15.5832 14.417Z" fill="#0841D4"/>
<path d="M18.3332 9.16699H16.9998C16.4998 9.16699 16.1665 9.50033 16.1665 10.0003C16.1665 10.5003 16.4998 10.8337 16.9998 10.8337H18.3332C18.8332 10.8337 19.1665 10.5003 19.1665 10.0003C19.1665 9.50033 18.8332 9.16699 18.3332 9.16699Z" fill="#0841D4"/>
<path d="M14.9998 5.83333C15.2498 5.83333 15.4165 5.75 15.5832 5.58333L16.4998 4.66667C16.8332 4.33333 16.8332 3.83333 16.4998 3.5C16.1665 3.16667 15.6665 3.16667 15.3332 3.5L14.4165 4.41667C14.0832 4.75 14.0832 5.25 14.4165 5.58333C14.5832 5.75 14.7498 5.83333 14.9998 5.83333Z" fill="#0841D4"/>
</svg>
