<svg width="23" height="25" viewBox="0 0 23 25" fill="none" xmlns="http://www.w3.org/2000/svg">
<g clip-path="url(#clip0_53_15855)">
<path d="M5.49284 13.774L6.09089 8.49368L0.903564 4.26187L5.64315 6.14852L6.76249 4.13033L10.8497 1.15002L19.8587 6.98286L20.3256 15.8824L16.312 22.4369L13.1395 23.0081L14.7801 19.4791V16.0816L13.5872 13.4283L12.3752 12.485L10.5107 14.7437V17.1339L9.05553 18.735L7.20703 18.998L6.38831 19.543L5.04511 19.0394L4.48544 16.6717L5.49284 15.0068V13.774Z" fill="white"/>
<path d="M13.7758 4.2168C12.7876 3.97627 11.7067 4.04016 11.7067 4.04016C11.7067 4.04016 11.3517 5.96815 9.15137 6.47552C9.16736 6.47552 12.0584 7.63682 13.7758 4.2168Z" fill="#94A6C3"/>
<path d="M14.6713 21.7115C15.8642 20.6141 16.7597 19.1033 17.1722 17.3933C17.1914 17.3294 17.3577 17.2167 17.4696 17.1302C17.6551 16.9987 17.8438 16.8897 17.879 16.713C17.9525 16.2094 17.9909 15.6833 17.9909 15.1571C17.9909 14.9617 17.8214 14.7625 17.6551 14.5671C17.524 14.4355 17.3929 14.2814 17.3929 14.1725C17.2074 12.1768 16.4239 10.3127 15.1734 8.95598L15.0423 9.11007C16.2544 10.448 17.0379 12.267 17.2074 14.195C17.2266 14.3716 17.3737 14.5445 17.524 14.7212C17.6551 14.8527 17.8054 15.0519 17.8054 15.1383C17.8054 15.6419 17.7671 16.1455 17.6935 16.6492C17.6743 16.7356 17.508 16.8258 17.3769 16.9122C17.1914 17.0212 17.0219 17.1302 16.9867 17.3069C16.539 19.171 15.5124 20.7945 14.15 21.8468C14.3931 21.2342 15.1574 19.2386 15.5668 18.2276L15.4932 14.9842L13.1234 12.2896L11.7802 12.5075L10.3059 15.315C10.3059 15.315 10.9967 16.3447 10.0244 17.5511C9.07461 18.735 8.32626 18.9981 8.32626 18.9981L7.63547 18.5584C7.84014 18.2502 8.2527 17.7917 8.56931 17.4835C9.10979 16.9573 9.65027 16.9122 9.65027 16.3447C9.67266 15.1571 8.5885 15.4841 8.5885 15.4841L8.19513 15.9238L8.02883 17.5474L7.21012 18.7538L7.11737 18.7312L5.77417 18.3817C5.77417 18.3817 6.59608 17.8781 6.7272 17.3069C6.85833 16.7581 6.46496 14.9391 6.44577 14.8302C6.46496 14.8527 6.83914 15.2248 7.00544 15.8374C7.30286 14.8715 7.69623 13.9507 7.80816 13.8643C7.9201 13.7778 9.4296 12.8345 9.4296 12.8345L8.9275 14.3904L9.30168 14.1499L10.1971 11.5642C10.1971 11.5642 11.0734 11.0606 11.7258 11.0606C12.8995 11.0381 14.6361 9.3506 13.8526 6.3252C14.0764 6.43419 17.9557 8.71545 18.6273 13.1878C19.1294 16.6266 17.4696 19.8474 14.6713 21.7115Z" fill="#94A6C3"/>
<path d="M10.2324 4.69782C10.661 4.10401 10.4947 3.22833 10.4947 3.22833L9.24423 5.40061C9.22504 5.40061 9.68876 5.42316 10.2324 4.69782Z" fill="#1B314F"/>
<path d="M6.03315 16.5589L6.18346 15.6832C6.18346 15.6832 5.56623 16.9535 5.51186 17.1302C5.45429 17.3293 5.55024 17.6789 5.79009 17.6563C6.03315 17.6338 6.33057 17.2166 6.33057 16.9122C6.33057 16.5176 6.03315 16.5589 6.03315 16.5589Z" fill="#1B314F"/>
<path d="M17.1146 2.61577C17.1146 2.61577 18.0485 2.66087 19.0175 2.79241C16.8332 0.774217 14.764 0.184169 13.085 0.184169C10.7728 0.184169 9.20571 1.30413 9.10977 1.36802L9.83894 0.00753055C9.83894 0.00753055 6.92866 -0.323197 5.90207 3.29602C5.63983 2.52933 5.39997 1.40936 5.39997 1.40936C5.39997 1.40936 3.88727 2.96905 4.59724 5.55473C2.86067 4.8106 0.382144 3.77707 0.286201 3.75828C0.155079 3.73573 0.116702 3.80338 0.116702 3.80338C0.116702 3.80338 0.0783246 3.86727 0.190258 3.98002C0.398135 4.17169 4.31581 7.57292 5.1761 8.23062C4.99061 9.01986 4.99061 9.39193 5.1761 9.76399C5.43835 10.2676 5.45434 10.5307 5.41916 10.9028C5.38078 11.2748 5.04498 14.4994 4.97142 14.894C4.89787 15.2886 4.11433 16.6905 4.14951 17.1077C4.18789 17.5248 4.6708 19.2987 5.10254 19.4979C5.41916 19.6294 6.20269 19.9151 6.72398 19.9151C6.90947 19.9151 7.07897 19.87 7.15253 19.7835C7.46914 19.4566 7.56189 19.3889 7.78575 19.3889C7.80494 19.3889 7.82413 19.3889 7.84012 19.3889C7.93287 19.3889 8.0448 19.4115 8.17592 19.4115C8.47335 19.4115 8.86671 19.3438 9.14495 19.0394C9.5543 18.5583 10.2643 17.9006 10.4882 17.5925C10.7696 17.1753 10.9167 16.6078 10.8431 16.0365C10.7856 15.5104 11.0286 15.0481 11.3101 14.5896C11.6651 14.0409 12.3175 13.0562 12.3175 13.0562C13.6063 14.1912 14.409 15.9238 14.409 17.8518C14.409 21.2718 11.8729 24.0341 8.73879 24.0341C8.25268 24.0341 7.78895 23.9702 7.32203 23.8387C8.75798 24.4288 9.97006 24.6279 10.9615 24.6279C13.069 24.6279 14.1884 23.7297 14.1884 23.7297C14.1884 23.7297 13.7982 24.3235 13.1618 25C13.181 25 13.181 25 13.181 25C16.6701 24.4288 18.3683 21.0538 18.3683 21.0538C18.3683 21.0538 18.2372 22.1512 18.0709 22.8954C22.7113 18.7951 21.9278 13.6651 21.9086 13.4922C21.947 13.5561 22.4139 14.2138 22.6537 14.5671C23.4021 5.53219 17.1146 2.61577 17.1146 2.61577ZM9.97006 17.0438C9.8965 17.1528 9.57989 17.4835 9.35602 17.724C9.13216 17.9645 8.8891 18.2051 8.70361 18.4268C8.63005 18.5132 8.47974 18.5583 8.25587 18.5583C8.18232 18.5583 8.10556 18.5583 8.0512 18.5583C8.01282 18.5583 7.97764 18.5583 7.93926 18.5583C7.90088 18.5583 7.8817 18.5583 7.86571 18.5583C7.80814 18.5583 7.75377 18.5583 7.69621 18.5583C7.97764 18.1186 8.79635 17.1114 9.07779 16.8934C9.41359 16.6304 9.58309 16.3673 9.37521 15.9088C9.17053 15.4465 8.63005 15.5592 8.63005 15.5592C8.63005 15.5592 8.94666 15.4052 9.2281 15.4052C8.87311 15.2962 8.42537 15.4052 8.2207 15.6457C7.99683 15.8862 8.03521 16.7431 7.94246 17.288C7.84972 17.8593 7.5331 18.1449 7.04699 18.6711C6.78475 18.9567 6.59926 19.0432 6.44895 19.0432C6.13233 18.9793 5.75816 18.8665 5.49591 18.7575C5.31042 18.4719 5.02899 17.5286 4.95543 17.134C5.0098 16.916 5.23367 16.4537 5.3456 16.1906C5.56947 15.687 5.70059 15.4014 5.73897 15.1383C5.81252 14.7662 6.05558 12.4624 6.14832 11.5003C6.39138 11.8724 6.72718 12.4887 6.65043 12.8834C7.19091 11.9851 6.80074 11.1057 6.61205 10.7562C6.44575 10.4067 6.22188 9.70386 6.40737 8.95972C6.59286 8.21559 7.26446 6.1523 7.26446 6.1523C7.26446 6.1523 7.48833 6.61457 7.80494 6.52437C8.12155 6.43793 10.6768 1.92049 10.6768 1.92049C10.6768 1.92049 11.3676 3.69439 10.6385 4.99099C9.8933 6.28384 9.16414 6.52437 9.16414 6.52437C9.16414 6.52437 10.1907 6.74235 11.1406 5.93056C11.5307 7.00543 11.9049 8.12163 11.9241 8.27572C11.8665 8.42981 11.1214 10.5344 11.0478 10.666C11.0094 10.7111 10.7504 10.7975 10.5617 10.8426C10.2451 10.9516 10.0596 11.0193 9.98285 11.0831C9.85173 11.2147 9.25368 13.1427 8.97545 14.086C8.63965 14.195 8.30385 14.4167 8.06079 14.8527C8.19191 14.7437 8.60127 14.6761 8.90189 14.6347C9.16414 14.6122 9.96366 15.1158 10.1715 16.0591C10.1715 16.0816 10.1715 16.0816 10.1715 16.1042C10.2131 16.45 10.1204 16.7807 9.97006 17.0438ZM8.2175 17.3068C8.387 17.0212 8.36781 16.5402 8.387 16.3861C8.40619 16.232 8.44137 15.9463 8.59168 15.905C8.74199 15.8599 9.09698 15.9276 9.09698 16.232C9.09698 16.5176 8.83473 16.5815 8.64924 16.7807C8.51492 16.931 8.25268 17.2617 8.2175 17.3068ZM15.6595 13.1164C15.845 12.0002 15.8642 11.0343 15.8098 10.2451C16.5358 11.3838 16.9835 12.7669 17.1146 14.1912C17.1338 14.3679 17.2809 14.5408 17.4312 14.7174C17.5624 14.8489 17.7127 15.0256 17.7127 15.1346C17.7127 15.6382 17.6743 16.1418 17.6007 16.6491C17.5815 16.713 17.4152 16.8258 17.2841 16.9122C17.0986 17.0212 16.9291 17.1302 16.894 17.3068C16.4846 18.9943 15.6051 20.4863 14.4314 21.5386C16.1648 19.4115 17.0027 15.9012 15.6595 13.1164ZM14.4858 21.7341C15.6979 20.6367 16.6317 19.1033 17.0411 17.3707C17.0603 17.3068 17.2266 17.1941 17.3385 17.1077C17.524 16.9987 17.7127 16.8671 17.7478 16.6905C17.8214 16.1869 17.8598 15.6607 17.8598 15.1346C17.8598 14.9391 17.6903 14.7399 17.524 14.5445C17.4312 14.413 17.2809 14.2589 17.2809 14.1499C17.1306 12.5489 16.5901 11.038 15.7522 9.78654C15.3781 7.15576 13.8877 6.34397 13.8494 6.32142C13.8877 6.38907 14.8568 8.03143 14.1852 9.95942C13.4944 11.91 11.7226 11.6055 11.5723 11.6243C11.422 11.6243 10.8463 12.5 10.1172 14.1236C10.0244 14.0785 9.63106 13.9695 9.18332 14.0597C9.51913 12.9623 10.0244 11.4064 10.1172 11.2748C10.1555 11.2297 10.4338 11.1433 10.6225 11.0794C10.9775 10.9704 11.1438 10.9028 11.2013 10.8163C11.2397 10.7487 11.4252 10.2451 11.6107 9.7189C11.7802 9.7189 12.2087 9.6738 12.2439 9.65125C12.2823 9.60615 12.6373 8.53504 12.6373 8.4035C12.6373 8.29451 11.9081 6.16733 11.6299 5.35555C11.761 5.17891 11.8921 4.96093 12.02 4.7204C15.845 5.20521 18.832 9.01986 18.832 13.6425C18.832 17.1941 17.0603 20.2871 14.4858 21.7341Z" fill="#1B314F"/>
<path d="M9.52244 9.89551C9.87743 9.41445 9.69194 8.51622 9.03633 8.36213C9.20583 7.90362 9.44569 6.98285 9.44569 6.98285C9.44569 6.98285 7.54281 10.4893 7.37651 10.557C7.20701 10.6246 7.04071 9.85417 7.04071 9.85417C6.68572 11.4552 7.63876 11.6732 7.75069 11.1696C8.27198 11.0117 9.16745 10.354 9.52244 9.89551Z" fill="#1B314F"/>
<path d="M7.89771 10.7486L8.86673 8.7981C8.86673 8.7981 9.4264 9.12882 9.14497 9.65498C8.79317 10.2676 7.89771 10.7486 7.89771 10.7486Z" fill="#FFD923"/>
<path d="M19.8938 19.7835C19.6124 20.2233 19.2958 20.6818 18.9248 21.1215C21.3298 15.6833 19.0367 10.7073 18.944 10.5119C19.1135 10.7111 19.2798 10.9291 19.4301 11.1245C21.2754 13.5335 21.4993 17.1528 19.8938 19.7835Z" fill="#D82122"/>
<path d="M22.1324 12.7894C21.2913 10.136 20.0984 7.87732 17.4696 5.84034C14.9335 3.86725 12.2087 4.02134 12.0584 4.04389C12.0392 4.04389 12.02 4.04389 12.02 4.04389C12.1128 3.99879 12.2055 3.97624 12.2983 3.95745C12.8771 3.73947 13.6223 3.56283 14.3706 3.45384C16.3503 3.11935 18.3459 3.90859 19.7083 5.59981C19.7274 5.62236 19.7274 5.62236 19.7466 5.64491C21.2945 7.5729 22.0972 9.98195 22.1324 12.7894Z" fill="#D82122"/>
<path d="M16.8716 1.93548C14.0925 1.32288 12.3015 1.6273 11.0127 2.19856C10.9743 2.02192 10.8432 1.6724 10.7313 1.38677C10.3443 1.93548 9.93173 2.59318 9.67269 3.01035C8.96271 3.5816 8.66528 4.13031 8.66528 4.13031C9.07464 2.48419 10.2707 1.25899 11.7259 0.950814C12.1352 0.864374 12.583 0.819275 13.0691 0.819275C14.3547 0.841825 15.6403 1.21389 16.8716 1.93548Z" fill="#D82122"/>
<path d="M6.593 6.14475C4.4119 6.05831 5.13786 3.07425 5.17624 2.90137C5.17624 2.92392 5.32335 5.24653 6.593 6.14475Z" fill="#D82122"/>
<path d="M8.73888 0.774231C7.05987 1.95809 7.39567 4.7843 7.39567 4.7843C5.79022 1.91674 8.60775 0.84188 8.73888 0.774231Z" fill="#D82122"/>
<path d="M5.9789 6.93401C6.09083 7.043 6.20276 7.24218 6.07164 7.52781C5.99808 7.6819 5.88615 7.65935 5.71665 7.57291C5.49278 7.44137 4.14958 6.5206 2.9375 5.57727C4.31908 6.14853 5.71665 6.76113 5.94052 6.89266C5.94052 6.89266 5.95971 6.91521 5.9789 6.93401Z" fill="white"/>
</g>
<defs>
<clipPath id="clip0_53_15855">
<rect width="22.6042" height="25" fill="white" transform="translate(0.113525)"/>
</clipPath>
</defs>
</svg>
