<svg width="18" height="18" viewBox="0 0 18 18" fill="none" xmlns="http://www.w3.org/2000/svg">
<path fill-rule="evenodd" clip-rule="evenodd" d="M8.75 17.5C3.91751 17.5 0 13.5825 0 8.75C0 3.91751 3.91751 0 8.75 0C13.5825 0 17.5 3.91751 17.5 8.75C17.5 13.5825 13.5825 17.5 8.75 17.5ZM8.75 15.9091C12.7039 15.9091 15.9091 12.7039 15.9091 8.75C15.9091 4.79614 12.7039 1.59091 8.75 1.59091C4.79614 1.59091 1.59091 4.79614 1.59091 8.75C1.59091 12.7039 4.79614 15.9091 8.75 15.9091ZM6.92611 11.3693L5.80117 12.4943L2.05688 8.75L5.80117 5.00571L6.92611 6.13065L4.30676 8.75L6.92611 11.3693ZM10.5739 6.13065L11.6988 5.00571L15.4431 8.75L11.6988 12.4943L10.5739 11.3693L13.1932 8.75L10.5739 6.13065ZM8.73918 13.6535L7.16991 13.392L8.76082 3.8465L10.3301 4.10804L8.73918 13.6535Z" fill="#7F819E"/>
</svg>
