<svg width="11" height="14" viewBox="0 0 11 14" fill="none" xmlns="http://www.w3.org/2000/svg">
<path fill-rule="evenodd" clip-rule="evenodd" d="M0.310015 6.37809H1.27541V4.22677C1.27563 3.67171 1.37903 3.12216 1.57967 2.60965C1.78031 2.09714 2.07425 1.63176 2.44461 1.24022C2.81333 0.847116 3.25149 0.535206 3.73394 0.32238C4.21639 0.109555 4.73365 0 5.25605 0C5.77845 0 6.29571 0.109555 6.77816 0.32238C7.26061 0.535206 7.69877 0.847116 8.06749 1.24022C8.43786 1.63176 8.73179 2.09714 8.93243 2.60965C9.13307 3.12216 9.23647 3.67171 9.23669 4.22677V4.32704H7.6867V4.20284C7.68515 3.51862 7.42825 2.86298 6.97231 2.37969C6.63213 2.01896 6.19903 1.77331 5.7276 1.67371C5.25618 1.57411 4.76755 1.62501 4.32333 1.82001C3.8791 2.01501 3.49918 2.34536 3.23146 2.76942C2.96373 3.19348 2.8202 3.69225 2.81897 4.20284V6.37809H10.0058C10.0879 6.37839 10.1666 6.41318 10.2247 6.47487C10.2828 6.53656 10.3155 6.62015 10.3158 6.70739V13.6707C10.3155 13.7579 10.2828 13.8415 10.2247 13.9032C10.1666 13.9649 10.0879 13.9997 10.0058 14H0.310015C0.227886 13.9997 0.1492 13.9649 0.0911255 13.9032C0.0330507 13.8415 0.000299386 13.7579 1.66651e-05 13.6707V6.71195C-0.000408046 6.66837 0.00728898 6.62512 0.0226644 6.58471C0.0380399 6.5443 0.0607899 6.50751 0.0896042 6.47648C0.118419 6.44545 0.152728 6.42078 0.190556 6.40389C0.228384 6.38701 0.268983 6.37824 0.310015 6.37809ZM5.27214 10.1896L5.76342 12.5985H4.41616L4.81197 10.1577C4.60048 10.0861 4.42082 9.935 4.30661 9.7328C4.1924 9.5306 4.15145 9.29112 4.19145 9.05917C4.23144 8.82722 4.34962 8.6187 4.52389 8.47263C4.69815 8.32656 4.91655 8.25295 5.13821 8.26557C5.35988 8.2782 5.56961 8.37619 5.72818 8.54122C5.88674 8.70624 5.98326 8.92699 5.99968 9.16215C6.01609 9.39731 5.95128 9.63077 5.81737 9.81884C5.68346 10.0069 5.48963 10.1367 5.27214 10.1839V10.1896Z" fill="#F3F8FF"/>
</svg>
