<svg width="11" height="14" viewBox="0 0 14 19" fill="none" xmlns="http://www.w3.org/2000/svg">
<path fill-rule="evenodd" clip-rule="evenodd" d="M0.421276 8.66442H1.72633V8.4982V5.73912C1.72633 4.1612 2.33479 2.72646 3.31383 1.68693V1.68554C4.29332 0.645858 5.64527 0 7.13285 0C8.61926 0 9.97093 0.645858 10.9504 1.68554L10.9519 1.68693C11.9309 2.72646 12.5394 4.1612 12.5394 5.73912V8.4982V8.66442H13.5789C13.8105 8.66442 14.0001 8.86574 14.0001 9.11143V18.553C14.0001 18.7987 13.8105 19 13.5789 19H0.421276C0.189662 19 0 18.7987 0 18.553V9.11143C0 8.86574 0.189662 8.66442 0.421276 8.66442ZM3.82688 8.66442H10.4384V8.4982V5.70727C10.4384 4.74242 10.0663 3.86463 9.46793 3.22867L9.4672 3.22929C8.86836 2.59317 8.04154 2.19811 7.13285 2.19811C6.22373 2.19811 5.39691 2.59302 4.79733 3.22867C4.19878 3.86463 3.82688 4.74242 3.82688 5.70727V8.49836V8.66442ZM7.15951 13.8307L7.82682 17.0992L5.99765 17.1074L6.53444 13.7949C6.03465 13.6249 5.67237 13.1278 5.67237 12.5408C5.67237 11.8139 6.22737 11.2248 6.91245 11.2248C7.59681 11.2248 8.15224 11.8139 8.15224 12.5408C8.15224 13.1778 7.72572 13.7093 7.15951 13.8307Z" fill="#F400F5"/>
</svg>
