<svg width="22" height="24" viewBox="0 0 22 24" fill="none" xmlns="http://www.w3.org/2000/svg">
<path d="M10.1984 5.81169V4.27292C9.82937 4.17494 9.4927 3.98139 9.22234 3.71179C8.95198 3.44218 8.75749 3.10606 8.65847 2.73732C8.55945 2.36857 8.55941 1.98023 8.65835 1.61146C8.75729 1.24269 8.95171 0.906532 9.22201 0.636873C9.4232 0.435004 9.66226 0.274834 9.92548 0.165546C10.1887 0.0562571 10.4709 0 10.7559 0C11.0409 0 11.3231 0.0562571 11.5863 0.165546C11.8496 0.274834 12.0886 0.435004 12.2898 0.636873C12.5649 0.911164 12.7615 1.25418 12.859 1.63021C12.9566 2.00625 12.9516 2.40156 12.8445 2.77499C12.7374 3.14843 12.5322 3.48634 12.2502 3.75356C11.9683 4.02078 11.6198 4.20754 11.2412 4.2944V5.75311L11.208 5.73749C11.149 5.72147 11.089 5.70972 11.0283 5.70234C10.9477 5.69771 10.8668 5.69771 10.7862 5.70234H10.7588C10.6935 5.7021 10.6282 5.70667 10.5636 5.71601C10.5186 5.71601 10.464 5.73554 10.4034 5.75116C10.3369 5.76622 10.2716 5.78646 10.2082 5.81169H10.1925H10.1984ZM6.68342 9.23098L10.6417 7.0146L10.6905 6.99507C10.7315 6.98177 10.7743 6.97518 10.8174 6.97554C10.8543 6.97516 10.8911 6.97975 10.9268 6.98921C10.958 6.99564 10.9873 7.00898 11.0127 7.02827L14.9299 9.29542C15.0239 9.33143 15.1011 9.40101 15.1467 9.4907C15.1876 9.56894 15.2077 9.65633 15.2053 9.74456V14.316C15.2005 14.391 15.1767 14.4636 15.136 14.5268C15.0953 14.59 15.0392 14.6418 14.9729 14.6772L11.0381 16.9639C11.0097 16.9793 10.9795 16.9911 10.9483 16.9991C10.8699 17.0225 10.7864 17.0225 10.7081 16.9991C10.6695 16.988 10.6327 16.9716 10.5987 16.9503L6.57407 14.6069C6.50956 14.5717 6.45488 14.5209 6.41498 14.4592C6.37509 14.3975 6.35123 14.3268 6.34559 14.2535V9.65668C6.346 9.55899 6.37882 9.4642 6.4389 9.38716C6.49897 9.31012 6.58291 9.25519 6.67756 9.23098H6.68342ZM10.3937 15.8333V12.2558L7.22434 10.3714V13.9723L10.3898 15.8333H10.3937ZM14.3324 10.4261L11.2685 12.2578V15.8372L14.3324 14.0309V10.4261ZM10.8174 7.90115L7.82774 9.68598L10.8311 11.4942L13.7446 9.73675L10.8174 7.90115ZM11.2705 19.7212C11.6554 19.8166 12.0072 20.0151 12.2879 20.2953C12.4897 20.4965 12.6499 20.7356 12.7592 20.9988C12.8685 21.262 12.9247 21.5442 12.9247 21.8292C12.9247 22.1142 12.8685 22.3964 12.7592 22.6597C12.6499 22.9229 12.4897 23.1619 12.2879 23.3631C12.0867 23.565 11.8476 23.7252 11.5844 23.8345C11.3212 23.9437 11.039 24 10.754 24C10.4689 24 10.1867 23.9437 9.92353 23.8345C9.66031 23.7252 9.42125 23.565 9.22006 23.3631C9.01819 23.1619 8.85802 22.9229 8.74873 22.6597C8.63944 22.3964 8.58319 22.1142 8.58319 21.8292C8.58319 21.5442 8.63944 21.262 8.74873 20.9988C8.85802 20.7356 9.01819 20.4965 9.22006 20.2953C9.49858 20.0153 9.84837 19.8168 10.2316 19.7212V18.1981C10.2737 18.2153 10.3167 18.2303 10.3605 18.243L10.4347 18.2625C10.4845 18.277 10.5355 18.2875 10.587 18.2938C10.6684 18.307 10.7506 18.3142 10.833 18.3152C10.9155 18.3143 10.9977 18.3071 11.0791 18.2938C11.1452 18.2846 11.2105 18.2703 11.2744 18.2508V19.7212H11.2705ZM11.5517 21.0296C11.3389 20.8195 11.052 20.7016 10.753 20.7016C10.454 20.7016 10.167 20.8195 9.9543 21.0296C9.74405 21.2426 9.62617 21.5299 9.62617 21.8292C9.62617 22.1286 9.74405 22.4158 9.9543 22.6289C10.167 22.839 10.454 22.9568 10.753 22.9568C11.052 22.9568 11.3389 22.839 11.5517 22.6289C11.7628 22.4163 11.8814 22.1289 11.8814 21.8292C11.8814 21.5296 11.7628 21.2421 11.5517 21.0296ZM11.5517 1.36525C11.3389 1.15513 11.052 1.0373 10.753 1.0373C10.454 1.0373 10.167 1.15513 9.9543 1.36525C9.74405 1.57831 9.62617 1.86559 9.62617 2.16491C9.62617 2.46423 9.74405 2.75151 9.9543 2.96457C10.1673 3.17574 10.455 3.29434 10.7549 3.29458C10.9783 3.29426 11.1966 3.22778 11.3822 3.10352C11.5679 2.97926 11.7125 2.8028 11.798 2.5964C11.8834 2.39 11.9058 2.16291 11.8623 1.9438C11.8188 1.72469 11.7114 1.52337 11.5536 1.36525H11.5517ZM19.3002 14.73C19.876 14.7303 20.4281 14.9593 20.8351 15.3666C21.037 15.5678 21.1971 15.8068 21.3064 16.07C21.4157 16.3333 21.472 16.6155 21.472 16.9005C21.472 17.1855 21.4157 17.4677 21.3064 17.7309C21.1971 17.9941 21.037 18.2332 20.8351 18.4344C20.493 18.7764 20.0466 18.9943 19.5665 19.0538C19.0865 19.1132 18.6004 19.0106 18.1852 18.7624C17.7701 18.5141 17.4498 18.1343 17.275 17.6833C17.1002 17.2323 17.0811 16.7358 17.2205 16.2726L15.9493 15.5384C16.0595 15.4349 16.1548 15.3166 16.2324 15.1869C16.2693 15.1238 16.3026 15.0586 16.332 14.9916C16.3628 14.9288 16.3883 14.8635 16.4082 14.7964C16.4266 14.738 16.4416 14.6787 16.4531 14.6187L17.7517 15.3685L17.7634 15.3548C18.171 14.9472 18.7238 14.7183 19.3002 14.7182V14.73ZM20.0989 16.0969C19.9405 15.9394 19.7391 15.8323 19.5199 15.7891C19.3007 15.746 19.0737 15.7687 18.8675 15.8545C18.6612 15.9402 18.485 16.0852 18.361 16.271C18.237 16.4568 18.1709 16.6751 18.1709 16.8985C18.1709 17.1219 18.237 17.3402 18.361 17.526C18.485 17.7118 18.6612 17.8568 18.8675 17.9425C19.0737 18.0283 19.3007 18.051 19.5199 18.0079C19.7391 17.9647 19.9405 17.8576 20.0989 17.7001C20.3101 17.4876 20.4286 17.2001 20.4286 16.9005C20.4286 16.6008 20.3101 16.3134 20.0989 16.1008V16.0969ZM2.25065 14.73C2.81508 14.7298 3.35733 14.9497 3.76209 15.3431L5.09778 14.562L5.10949 14.6089L5.14074 14.728C5.16454 14.8067 5.19526 14.8832 5.23252 14.9565C5.25384 15.0095 5.27999 15.0605 5.31063 15.1088C5.38889 15.237 5.4834 15.3545 5.59183 15.4583L5.60354 15.4701L4.31472 16.2141C4.47176 16.6789 4.46673 17.1833 4.30045 17.6449C4.13417 18.1066 3.81645 18.4983 3.39905 18.7562C2.98166 19.0142 2.4892 19.1232 2.00193 19.0654C1.51467 19.0077 1.06132 18.7866 0.715778 18.4383C0.411827 18.1343 0.204835 17.747 0.120976 17.3254C0.0371168 16.9038 0.0801579 16.4668 0.244656 16.0697C0.409154 15.6726 0.687722 15.3331 1.04513 15.0943C1.40254 14.8555 1.82275 14.728 2.2526 14.728L2.25065 14.73ZM3.04933 16.0969C2.83677 15.8857 2.54931 15.7672 2.24967 15.7672C1.95004 15.7672 1.66257 15.8857 1.45002 16.0969C1.2393 16.3097 1.1211 16.5971 1.1211 16.8966C1.1211 17.196 1.2393 17.4834 1.45002 17.6962H1.44416C1.65721 17.9065 1.94449 18.0243 2.24382 18.0243C2.54314 18.0243 2.83042 17.9065 3.04347 17.6962C3.25478 17.4833 3.37336 17.1955 3.37336 16.8956C3.37336 16.5956 3.25478 16.3078 3.04347 16.0949L3.04933 16.0969ZM19.3002 4.90561C19.7305 4.90468 20.1513 5.0316 20.5094 5.27027C20.8674 5.50893 21.1464 5.84857 21.3111 6.2461C21.4757 6.64362 21.5186 7.0811 21.4342 7.50302C21.3498 7.92494 21.142 8.31227 20.837 8.61586C20.6354 8.81762 20.396 8.97766 20.1324 9.08686C19.8689 9.19605 19.5865 9.25226 19.3012 9.25226C19.0159 9.25226 18.7335 9.19605 18.47 9.08686C18.2064 8.97766 17.967 8.81762 17.7654 8.61586L17.7361 8.59048L16.4453 9.33253C16.4094 9.16751 16.3488 9.00886 16.2656 8.86191C16.1774 8.70049 16.064 8.55415 15.9298 8.4284L17.2147 7.68635C17.1037 7.31212 17.0961 6.91482 17.1927 6.53663C17.2893 6.15843 17.4865 5.81345 17.7634 5.53831C17.9647 5.33629 18.2039 5.17604 18.4673 5.06679C18.7307 4.95754 19.0131 4.90144 19.2983 4.90171L19.3002 4.90561ZM20.0989 6.27255C19.8864 6.06195 19.5994 5.9438 19.3002 5.9438C19.0011 5.9438 18.714 6.06195 18.5015 6.27255C18.2892 6.48463 18.1698 6.77238 18.1696 7.07249C18.1694 7.3726 18.2885 7.66049 18.5006 7.87284C18.7126 8.08518 19.0004 8.20457 19.3005 8.20475C19.6006 8.20494 19.8885 8.08589 20.1009 7.87381C20.2059 7.76882 20.2892 7.64415 20.3461 7.50695C20.4029 7.36974 20.4322 7.22267 20.4322 7.07416C20.4322 6.92564 20.4029 6.77857 20.3461 6.64137C20.2892 6.50416 20.2059 6.3795 20.1009 6.2745L20.0989 6.27255ZM2.25065 4.90561C2.53627 4.90422 2.8193 4.9598 3.08319 5.06911C3.34707 5.17842 3.5865 5.33926 3.78747 5.54221C3.98996 5.74273 4.15053 5.98152 4.25982 6.2447C4.36911 6.50787 4.42495 6.79017 4.42407 7.07513C4.42391 7.24745 4.40359 7.41916 4.36354 7.58676L5.64846 8.36786C5.5901 8.41808 5.53589 8.47293 5.48638 8.53189C5.38073 8.65266 5.29324 8.78817 5.22666 8.93416L5.17394 9.05133C5.1505 9.11967 5.12902 9.18607 5.11145 9.2466L3.88316 8.50065C3.85332 8.53699 3.82137 8.57155 3.78747 8.60415C3.59068 8.82339 3.35134 9.00031 3.084 9.12411C2.81667 9.24792 2.52694 9.31603 2.23244 9.3243C1.93795 9.33258 1.64485 9.28083 1.37098 9.17223C1.09712 9.06362 0.848221 8.90043 0.639435 8.69257C0.430649 8.48471 0.266344 8.23654 0.156519 7.96317C0.0466941 7.68979 -0.0063532 7.39692 0.000605935 7.10239C0.00756507 6.80786 0.074385 6.51783 0.196999 6.24995C0.319613 5.98206 0.495456 5.74193 0.713826 5.54417C0.915089 5.34214 1.1543 5.1819 1.41771 5.07265C1.68112 4.9634 1.96353 4.90729 2.2487 4.90757L2.25065 4.90561ZM3.04933 6.27255C2.83628 6.0623 2.549 5.94442 2.24967 5.94442C1.95035 5.94442 1.66307 6.0623 1.45002 6.27255H1.44416C1.23391 6.4856 1.11603 6.77288 1.11603 7.0722C1.11603 7.37153 1.23391 7.65881 1.44416 7.87186C1.60229 8.03045 1.80396 8.1385 2.02358 8.18231C2.24321 8.22613 2.4709 8.20374 2.67778 8.11797C2.88467 8.03221 3.06142 7.88694 3.18562 7.70058C3.30983 7.51422 3.37589 7.29518 3.37544 7.07123C3.37595 6.92307 3.34724 6.77626 3.29095 6.63921C3.23465 6.50217 3.15189 6.37757 3.04738 6.27255H3.04933Z" fill="url(#paint0_linear_712_10857)"/>
<defs>
<linearGradient id="paint0_linear_712_10857" x1="1.32504" y1="25.6122" x2="25.9152" y2="5.40016" gradientUnits="userSpaceOnUse">
<stop stop-color="#2A01FF"/>
<stop offset="0.57" stop-color="#FF1EE1"/>
<stop offset="1" stop-color="#FFB332"/>
</linearGradient>
</defs>
</svg>
