<svg width="24" height="24" viewBox="0 0 24 24" fill="none" xmlns="http://www.w3.org/2000/svg">
<path fill-rule="evenodd" clip-rule="evenodd" d="M13.103 4.7891C15.0396 7.15824 15.9842 9.95707 15.8614 12.5196C14.9663 10.3555 13.5762 8.16215 11.7327 6.14262L11.1149 6.75199C11.0455 6.82035 10.9307 6.82035 10.8614 6.75199L8.90693 4.82426C8.83762 4.7559 8.83762 4.64262 8.90693 4.57426L9.50693 3.98246C7.40594 2.18754 5.14059 0.853557 2.92079 0.0254316C5.53861 -0.167928 8.42772 0.722697 10.8812 2.62504L11.1505 2.35942C11.2198 2.29106 11.3347 2.29106 11.404 2.35942L13.3584 4.28715C13.4277 4.35551 13.4277 4.46879 13.3584 4.53715L13.103 4.7891ZM9.76634 11.4629V10.6719L13.5505 11.0704L9.76634 11.4629ZM11.4515 14.5235L10.8832 13.9629L13.8455 11.6055L11.4515 14.5235ZM22.1327 6.87113L22.5921 7.8516L17.6713 9.49223L22.1327 6.87113ZM18.2693 4.02934L19.297 4.40239L16.9941 8.99418L18.2693 4.02934ZM20.3366 11.25L24 13.4903V24H5.09505C8.94455 20.2032 14.2119 18.9981 17.2574 13.7969C18.4139 11.8204 18.0218 9.70707 20.3366 11.25ZM8.83168 5.43168L10.4139 6.99223L1.90891 15.3829C1.47327 15.8125 0.760396 15.8125 0.326733 15.3829C-0.108911 14.9532 -0.108911 14.25 0.326733 13.8223L8.83168 5.43168Z" fill="#F400F5"/>
</svg>
