<svg width="18" height="18" viewBox="0 0 18 18" fill="none" xmlns="http://www.w3.org/2000/svg">
<path d="M12.1154 11.9531V14.2187C12.1154 14.9147 11.5493 15.4807 10.8534 15.4807H3.28125C2.58529 15.4807 2.01923 14.9147 2.01923 14.2187V6.64661C2.01923 5.95064 2.58529 5.38459 3.28125 5.38459H5.58923L7.60913 3.36536H3.28125C1.46865 3.36536 0 4.83401 0 6.64661V14.2187C0 16.0313 1.46865 17.5 3.28125 17.5H10.8534C12.666 17.5 14.1346 16.0313 14.1346 14.2187V9.93324L12.1154 11.9531Z" fill="#7F819E"/>
<path d="M15.1987 -2.58392e-05H8.29362C7.02419 0.00132031 7.11237 0.343243 7.78208 1.01228L9.94939 3.17959L6.234 6.8943C5.46333 7.6643 5.464 8.91219 6.234 9.68151L7.85612 11.3043C8.62612 12.0723 9.87266 12.073 10.6427 11.3036L14.358 7.58824L16.485 9.71517C17.226 10.4556 17.4993 10.4751 17.4993 9.20565L17.5 2.30122C17.4993 -0.0121414 17.5161 -0.000698916 15.1987 -2.58392e-05Z" fill="#7F819E"/>
</svg>
