<svg width="30" height="30" viewBox="0 0 30 30" fill="none" xmlns="http://www.w3.org/2000/svg">
<path d="M30 15C30 23.2838 23.2838 30 15 30C6.71619 30 0 23.2838 0 15C0 6.71619 6.71619 0 15 0C23.2856 0 30 6.71619 30 15Z" fill="#7F819E"/>
<path d="M7.40034 15.5035L7.46505 15.4017L11.3671 9.29738C11.4242 9.20801 11.5582 9.21725 11.6014 9.31433C12.2533 10.7753 12.8158 12.5923 12.5523 13.7235C12.4398 14.1889 12.1315 14.8192 11.7848 15.4017C11.7401 15.4865 11.6908 15.5697 11.6384 15.6499C11.6137 15.6868 11.5721 15.7084 11.5274 15.7084H7.51437C7.40649 15.7084 7.34331 15.5913 7.40034 15.5035Z" fill="#F0F2F5"/>
<path d="M24.7926 16.6383V17.6046C24.7926 17.66 24.7587 17.7094 24.7094 17.7309C24.4074 17.8604 23.3733 18.335 22.9433 18.933C21.846 20.4602 21.0077 22.644 19.1337 22.644H11.3156C8.54473 22.644 6.29932 20.3909 6.29932 17.6107V17.5213C6.29932 17.4474 6.35941 17.3873 6.43339 17.3873H10.7917C10.8779 17.3873 10.9411 17.4674 10.9334 17.5522C10.9026 17.8357 10.955 18.1255 11.0891 18.389C11.348 18.9145 11.8843 19.2428 12.4637 19.2428H14.6213V17.5583H12.4884C12.379 17.5583 12.3143 17.432 12.3775 17.3426C12.4006 17.3071 12.4268 17.2702 12.4545 17.2286C12.6564 16.9419 12.9446 16.4965 13.2312 15.9895C13.427 15.6474 13.6165 15.2821 13.7691 14.9153C13.7999 14.8491 13.8245 14.7812 13.8492 14.715C13.8908 14.5979 13.934 14.4884 13.9648 14.379C13.9956 14.2865 14.0203 14.1895 14.0449 14.0985C14.1174 13.7872 14.1482 13.4574 14.1482 13.1153C14.1482 12.9812 14.142 12.841 14.1297 12.7069C14.1235 12.5605 14.105 12.4141 14.0865 12.2677C14.0742 12.1382 14.0511 12.0103 14.0264 11.8763C13.9956 11.6805 13.9525 11.4864 13.9031 11.2906L13.8862 11.2167C13.8492 11.0826 13.8184 10.9547 13.7753 10.8206C13.6535 10.3999 13.5133 9.98994 13.3653 9.60621C13.3114 9.45363 13.2497 9.30723 13.1881 9.16083C13.0972 8.94045 13.0047 8.74011 12.9199 8.55054C12.8768 8.46423 12.8398 8.38563 12.8028 8.3055C12.7612 8.21457 12.7181 8.12364 12.6749 8.03736C12.6441 7.97109 12.6086 7.90944 12.584 7.84779L12.3204 7.3608C12.2834 7.29453 12.3451 7.21593 12.4175 7.23597L14.0665 7.68288H14.0711C14.0742 7.68288 14.0758 7.68444 14.0773 7.68444L14.2946 7.74453L14.5335 7.81236L14.6213 7.83699V6.85686C14.6213 6.38373 15.0004 6 15.4689 6C15.7032 6 15.9158 6.09555 16.0684 6.25119C16.221 6.40686 16.3165 6.61953 16.3165 6.85686V8.31168L16.4922 8.36097C16.5061 8.36562 16.52 8.37177 16.5323 8.38101C16.5755 8.41338 16.6371 8.46114 16.7157 8.51973C16.7773 8.56902 16.8436 8.62914 16.9237 8.69079C17.0825 8.81868 17.272 8.98359 17.4801 9.17316C17.5355 9.22092 17.5895 9.27024 17.6388 9.31956C17.907 9.56922 18.2075 9.86202 18.4941 10.1857C18.5743 10.2766 18.6529 10.3691 18.733 10.4661C18.8131 10.5648 18.8979 10.6619 18.9719 10.759C19.069 10.8884 19.1738 11.0225 19.2647 11.1627C19.3078 11.229 19.3571 11.2968 19.3988 11.3631C19.5159 11.5403 19.6191 11.7237 19.7178 11.9071C19.7594 11.9918 19.8025 12.0843 19.8395 12.1752C19.9489 12.4203 20.0352 12.6699 20.0907 12.9196C20.1077 12.9735 20.12 13.0321 20.1262 13.0845V13.0968C20.1446 13.1708 20.1508 13.2494 20.157 13.3295C20.1816 13.5854 20.1693 13.8412 20.1138 14.0985C20.0907 14.208 20.0599 14.3112 20.0229 14.4206C19.9859 14.5254 19.9489 14.6348 19.9012 14.7381C19.8087 14.9523 19.6993 15.1665 19.5698 15.3669C19.5282 15.4409 19.4789 15.5195 19.4296 15.5934C19.3756 15.672 19.3202 15.746 19.2708 15.8184C19.203 15.9109 19.1306 16.008 19.0566 16.0943C18.9904 16.1852 18.9226 16.2761 18.8486 16.3563C18.7453 16.478 18.6467 16.5936 18.5434 16.7046C18.4818 16.777 18.4155 16.851 18.3477 16.9172C18.2815 16.9912 18.2136 17.0575 18.152 17.1191C18.0488 17.2224 17.9624 17.3025 17.89 17.3688L17.7205 17.5244C17.6958 17.546 17.6635 17.5583 17.6296 17.5583H16.3165V19.2428H17.9686C18.3385 19.2428 18.6899 19.1118 18.9734 18.8714C19.0705 18.7866 19.4943 18.4198 19.9952 17.8666C20.0121 17.8481 20.0337 17.8342 20.0584 17.828L24.6216 16.5089C24.7064 16.4842 24.7926 16.5489 24.7926 16.6383Z" fill="#F0F2F5"/>
</svg>
