<svg width="24" height="24" viewBox="0 0 24 24" fill="none" xmlns="http://www.w3.org/2000/svg">
	<path d="M0.976722 0H9.64806C9.90688 0.000573107 10.1549 0.103853 10.3376 0.287156C10.4287 0.377475 10.5012 0.484861 10.5508 0.603178C10.6004 0.721495 10.6262 0.848427 10.6267 0.976721V9.60898C10.6267 9.86803 10.5238 10.1165 10.3407 10.2996C10.1575 10.4828 9.90905 10.5857 9.65001 10.5857H0.976722C0.847906 10.5859 0.720317 10.5607 0.601301 10.5114C0.482285 10.4621 0.374193 10.3898 0.283249 10.2986L0.265668 10.2771C0.0953903 10.0962 0.000392042 9.85736 0 9.60898L0 0.976721C0 0.717679 0.102904 0.469246 0.286075 0.286075C0.469246 0.102904 0.717679 0 0.976722 0V0ZM14.3559 13.1916H23.0233C23.2815 13.1941 23.5285 13.2979 23.7111 13.4805C23.8937 13.6631 23.9975 13.9101 24 14.1683V22.7967C24 23.0557 23.8971 23.3042 23.7139 23.4873C23.5308 23.6705 23.2823 23.7734 23.0233 23.7734H14.3559C14.1008 23.7729 13.8562 23.6726 13.6741 23.4941L13.6565 23.4726C13.4829 23.2921 13.3862 23.0511 13.3869 22.8006V14.1722C13.3867 14.0434 13.412 13.9158 13.4613 13.7968C13.5105 13.6778 13.5829 13.5697 13.6741 13.4788L13.6936 13.4592C13.8748 13.2866 14.1154 13.1901 14.3656 13.1896L14.3559 13.1916ZM0.976722 13.1916H9.64806C9.90688 13.1922 10.1549 13.2955 10.3376 13.4788C10.4295 13.5689 10.5024 13.6765 10.5521 13.7953C10.6017 13.9141 10.6271 14.0416 10.6267 14.1703V22.7986C10.6267 23.0577 10.5238 23.3061 10.3407 23.4893C10.1575 23.6724 9.90905 23.7754 9.65001 23.7754H0.976722C0.847906 23.7756 0.720317 23.7503 0.601301 23.701C0.482285 23.6518 0.374193 23.5794 0.283249 23.4882L0.265668 23.4667C0.0958511 23.2864 0.000887734 23.0483 0 22.8006L0 14.1722C0 13.9132 0.102904 13.6648 0.286075 13.4816C0.469246 13.2984 0.717679 13.1955 0.976722 13.1955V13.1916ZM14.3559 0H23.0233C23.2823 0 23.5308 0.102904 23.7139 0.286075C23.8971 0.469246 24 0.717679 24 0.976721V9.60898C24 9.86803 23.8971 10.1165 23.7139 10.2996C23.5308 10.4828 23.2823 10.5857 23.0233 10.5857H14.3559C14.0968 10.5857 13.8484 10.4828 13.6652 10.2996C13.482 10.1165 13.3791 9.86803 13.3791 9.60898V0.976721C13.3804 0.848016 13.4072 0.720838 13.4578 0.602498C13.5084 0.484158 13.5819 0.376991 13.6741 0.287156L13.6936 0.269575C13.8724 0.0992494 14.109 0.00293161 14.3559 0V0Z" fill="rgb(244, 0, 245)" />
</svg>
