<svg width="18" height="10" viewBox="0 0 18 10" fill="none" xmlns="http://www.w3.org/2000/svg">
<path fill-rule="evenodd" clip-rule="evenodd" d="M8.7485 1.96857C9.41759 1.96618 10.0668 2.19586 10.5855 2.61847C11.1043 3.04109 11.4604 3.6305 11.5933 4.28626C11.7262 4.94203 11.6276 5.62358 11.3143 6.21479C11.001 6.80601 10.4924 7.2703 9.87513 7.52856C9.25789 7.78682 8.5702 7.82307 7.92922 7.63113C7.28825 7.43919 6.73366 7.03095 6.35994 6.47595C5.98623 5.92095 5.81651 5.25354 5.87971 4.58744C5.94291 3.92134 6.23512 3.29776 6.70654 2.82295C6.9738 2.55299 7.2918 2.33854 7.64223 2.19191C7.99267 2.04529 8.36863 1.96939 8.7485 1.96857ZM0.149209 4.4605C0.602117 3.91026 1.09317 3.39256 1.61874 2.91123C3.66496 1.04869 5.99171 0.0533457 8.40105 0.00208311C10.8104 -0.0491794 13.2553 0.845067 15.5707 2.75317C16.2057 3.27961 16.8025 3.85064 17.3563 4.46193C17.4424 4.55884 17.4928 4.68221 17.4993 4.81166C17.5058 4.9411 17.4679 5.06889 17.3919 5.1739C16.7758 6.0522 16.0385 6.8389 15.2019 7.51062C13.4544 8.92279 11.2786 9.69861 9.03187 9.71064C6.76893 9.70473 4.56478 8.9896 2.72942 7.66583C1.74758 6.96844 0.869735 6.13518 0.122154 5.19099C0.0386198 5.08609 -0.00457848 4.95474 0.000384676 4.82074C0.00534783 4.68673 0.0581441 4.55894 0.149209 4.4605ZM2.37486 3.74852C1.99501 4.09366 1.63421 4.45921 1.29407 4.84355C1.90735 5.56109 2.60654 6.2005 3.3759 6.74738C5.02132 7.93621 6.99766 8.58005 9.0276 8.58856C11.0195 8.5763 12.9481 7.8874 14.497 6.63489C15.1356 6.12257 15.7094 5.53442 16.2058 4.88342C15.78 4.4367 15.3283 4.01543 14.853 3.62179C12.7527 1.89025 10.5484 1.08144 8.41672 1.12559C6.28505 1.16973 4.21889 2.06398 2.37486 3.74283V3.74852ZM8.02655 2.63926C8.2482 2.63926 8.46487 2.70498 8.64916 2.82812C8.83345 2.95126 8.97708 3.12628 9.0619 3.33106C9.14672 3.53583 9.16892 3.76116 9.12568 3.97854C9.08244 4.19593 8.9757 4.39561 8.81898 4.55234C8.66225 4.70906 8.46257 4.8158 8.24518 4.85904C8.0278 4.90228 7.80247 4.88008 7.5977 4.79526C7.39292 4.71044 7.2179 4.56681 7.09476 4.38252C6.97162 4.19823 6.9059 3.98156 6.9059 3.75991C6.90571 3.61269 6.93457 3.46688 6.99082 3.33083C7.04707 3.19479 7.12961 3.07117 7.23371 2.96707C7.33781 2.86297 7.46143 2.78043 7.59748 2.72418C7.73352 2.66793 7.87933 2.63907 8.02655 2.63926Z" fill="#7F819E"/>
</svg>
