<svg width="20" height="20" viewBox="0 0 20 20" fill="none" xmlns="http://www.w3.org/2000/svg">
<path d="M15.1984 15.0113C14.4622 15.8269 13.5795 16.4153 12.6317 16.8008C10.118 17.8234 7.12828 17.3445 5.06601 15.3481L6.91269 13.5059C7.01438 13.4045 6.94117 13.2219 6.79067 13.1975L0.188957 12.1912C0.0791318 12.175 -0.014423 12.2683 0.00184743 12.3778L1.01061 18.9677C1.03502 19.1178 1.21806 19.1908 1.31975 19.0894L3.17051 17.2431C6.29442 20.2905 10.9803 20.8099 14.6411 18.8094C15.7434 18.2089 16.7522 17.377 17.5983 16.3179C19.0341 14.5163 19.7216 12.3008 19.6768 10.1014L16.9637 9.68755C17.1264 11.5825 16.5407 13.5303 15.1984 15.0113Z" fill="#262626"/>
<path d="M16.8294 2.75695C13.7055 -0.290434 9.01962 -0.809826 5.35878 1.19065C4.25646 1.7912 3.2477 2.62304 2.40164 3.68212C0.965775 5.48376 0.278352 7.6993 0.323095 9.89861L3.03618 10.3125C2.87348 8.42158 3.45921 6.4698 4.80152 4.98871C5.53775 4.1731 6.42042 3.58473 7.36817 3.19924C9.88195 2.17669 12.8716 2.6555 14.9339 4.65192L13.0872 6.49414C12.9855 6.59559 13.0587 6.77819 13.2092 6.80253L19.811 7.80886C19.9208 7.82509 20.0143 7.73176 19.9981 7.6222L18.9893 1.0324C18.9649 0.882259 18.7818 0.813277 18.6802 0.910663L16.8294 2.75695Z" fill="#262626"/>
</svg>
