<svg width="20" height="20" viewBox="0 0 20 20" fill="none" xmlns="http://www.w3.org/2000/svg">
<path d="M18.0001 0H6.00001C4.897 0 4 0.897004 4 2.00001V14.0001C4 15.1031 4.897 16.0001 6.00001 16.0001H18.0001C19.1031 16.0001 20.0001 15.1031 20.0001 14.0001V2.00001C20.0001 0.897004 19.1031 0 18.0001 0ZM6.00001 14.0001V2.00001H18.0001L18.0021 14.0001H6.00001Z" fill="#262626"/>
<path d="M2.00001 5.99843H0V17.9985C0 19.1015 0.897004 19.9985 2.00001 19.9985H14.0001V17.9985H2.00001V5.99843ZM10.9331 9.51745L9.20705 7.79144L7.79304 9.20545L11.0671 12.4795L16.7691 5.63943L15.2311 4.35742L10.9331 9.51745Z" fill="#262626"/>
</svg>
