<svg width="18" height="18" viewBox="0 0 18 18" fill="none" xmlns="http://www.w3.org/2000/svg">
<path d="M15.6376 9.31948C15.6376 9.3084 15.6376 9.3084 15.6376 9.29731C15.6376 8.11108 16.1254 6.99137 17.0789 6.29293L17.1565 6.2375L15.7042 3.70983C14.6288 4.19763 13.3871 4.13111 12.3672 3.54354L12.2009 3.44376C11.181 2.87836 10.5047 1.82517 10.3828 0.650024H7.46707C7.34512 1.82517 6.66885 2.86728 5.64892 3.46593L5.48263 3.55463C4.46269 4.1422 3.22103 4.20871 2.14566 3.72092L0.693359 6.24859L0.770963 6.30402C1.73547 6.99137 2.22326 8.12217 2.21218 9.3084C2.21218 9.31948 2.21218 9.31948 2.21218 9.33057C2.21218 9.34165 2.21218 9.34165 2.21218 9.35274C2.21218 10.539 1.72438 11.6587 0.770963 12.3571L0.693359 12.3904L2.14566 14.918L2.22326 14.8848C3.29863 14.397 4.52921 14.53 5.54914 15.1287C5.56023 15.1398 5.57131 15.1398 5.5824 15.1509C6.61342 15.7384 7.33403 16.7362 7.45598 17.9113L7.46707 18H10.3828L10.3938 17.9113C10.5158 16.7362 11.2364 15.7384 12.2674 15.1509C12.2785 15.1398 12.2896 15.1398 12.3007 15.1287C13.3206 14.5411 14.5512 14.397 15.6266 14.8848L15.7042 14.918L17.1565 12.3904L17.0789 12.3349C16.1144 11.6476 15.6266 10.5168 15.6376 9.33057V9.31948Z" fill="#F400F5"/>
<path d="M8.93069 11.8139C10.3083 11.8139 11.4251 10.6971 11.4251 9.31948C11.4251 7.94186 10.3083 6.82507 8.93069 6.82507C7.55306 6.82507 6.43628 7.94186 6.43628 9.31948C6.43628 10.6971 7.55306 11.8139 8.93069 11.8139Z" fill="#E4CCFD"/>
</svg>
