<svg width="41" height="27" viewBox="0 0 41 27" fill="none" xmlns="http://www.w3.org/2000/svg">
<path d="M0.351567 11.903C1.41291 10.6154 2.56265 9.40328 3.79244 8.27543C5.90774 6.32038 8.31506 4.70725 10.9276 3.49422L9.59391 1.49371L11.8912 0L13.5282 2.49397C15.5165 1.85835 17.5862 1.51359 19.6731 1.47037C25.2879 1.35368 31.0394 3.44087 36.4607 7.91201C37.9478 9.14455 39.345 10.4816 40.6418 11.913C40.8433 12.14 40.9614 12.4288 40.9765 12.7319C40.9917 13.035 40.903 13.3342 40.7252 13.5801C39.2827 15.6368 37.5575 17.4798 35.6005 19.0548C33.1298 21.0386 30.283 22.5017 27.2317 23.3559L28.162 24.7696L25.8814 26.26L24.371 23.9561C23.3086 24.1093 22.2369 24.1895 21.1635 24.1961C15.861 24.1843 10.6955 22.511 6.3931 19.4116C4.09486 17.7765 2.03953 15.8244 0.288218 13.6135C0.092625 13.3678 -0.00852317 13.0603 0.00309798 12.7465C0.0147191 12.4327 0.138341 12.1335 0.351567 11.903ZM6.41978 9.4724L13.735 20.2952C14.9998 20.7468 16.3034 21.0816 17.6293 21.2954L8.72703 7.7353C7.92666 8.27157 7.15641 8.85148 6.41978 9.4724ZM10.6175 18.9215L5.0561 10.696C4.36259 11.3629 3.68797 12.0664 3.03225 12.8066C4.46937 14.4837 6.1064 15.9785 7.90682 17.2577C8.77369 17.871 9.67913 18.4278 10.6175 18.9248V18.9215ZM10.2841 6.77839L19.9665 21.5455C20.3566 21.5655 20.7501 21.5721 21.1402 21.5721C21.677 21.5721 22.2104 21.5421 22.7439 21.4988L12.388 5.72479C11.6658 6.03971 10.9603 6.39137 10.2741 6.77839H10.2841ZM15.042 4.77788L16.6724 7.26184C17.4131 6.72446 18.2552 6.34303 19.1476 6.14064C20.0401 5.93825 20.9643 5.91912 21.8644 6.08441C22.7644 6.2497 23.6216 6.59597 24.3839 7.10224C25.1462 7.60852 25.7978 8.26426 26.2993 9.02976C26.8007 9.79525 27.1416 10.6546 27.3011 11.5557C27.4607 12.4567 27.4358 13.3809 27.2278 14.272C27.0197 15.1632 26.633 16.0028 26.0909 16.7401C25.5489 17.4774 24.8628 18.097 24.0743 18.5614L25.6947 21.032C28.7114 20.3219 31.531 18.9457 33.9468 17.0043C35.4419 15.8059 36.7854 14.4299 37.9478 12.9066C36.9508 11.8596 35.8932 10.8721 34.7803 9.94919C29.8624 5.88816 24.7011 4.00102 19.7098 4.09437C18.1311 4.13072 16.5631 4.36368 15.042 4.78788V4.77788ZM17.0625 7.85866L19.9399 12.2398C20.2496 12.0607 20.5195 11.8202 20.7328 11.5331C20.9462 11.2459 21.0986 10.9182 21.1807 10.5699C21.2628 10.2217 21.2727 9.8604 21.21 9.50817C21.1473 9.15595 21.0133 8.82027 20.8161 8.52176C20.6189 8.22325 20.3628 7.96821 20.0634 7.77232C19.764 7.57643 19.4278 7.44383 19.0753 7.38267C18.7228 7.3215 18.3615 7.33306 18.0137 7.41663C17.6658 7.50021 17.3387 7.65404 17.0525 7.86866L17.0625 7.85866Z" fill="black"/>
</svg>
