<svg width="48" height="28" viewBox="0 0 48 28" fill="none" xmlns="http://www.w3.org/2000/svg">
<path fill-rule="evenodd" clip-rule="evenodd" d="M23.6552 6.31677C25.4643 6.3103 27.2196 6.9313 28.6222 8.07397C30.0247 9.21664 30.9877 10.8103 31.3469 12.5833C31.7062 14.3564 31.4396 16.1992 30.5925 17.7977C29.7454 19.3962 28.3703 20.6516 26.7014 21.3499C25.0325 22.0481 23.1731 22.1462 21.44 21.6272C19.707 21.1082 18.2074 20.0044 17.197 18.5038C16.1865 17.0032 15.7277 15.1987 15.8985 13.3977C16.0694 11.5967 16.8595 9.91062 18.1341 8.62683C18.8568 7.89693 19.7165 7.31708 20.664 6.92064C21.6115 6.52419 22.6281 6.31897 23.6552 6.31677ZM0.404407 13.0544C1.62898 11.5667 2.95669 10.1669 4.37771 8.86553C9.91031 3.8296 16.2014 1.13838 22.7158 0.999773C29.2301 0.861169 35.8407 3.27903 42.101 8.43817C43.8181 9.86155 45.4315 11.4055 46.929 13.0583C47.1617 13.3203 47.2981 13.6539 47.3156 14.0039C47.3331 14.3539 47.2307 14.6994 47.0253 14.9833C45.3593 17.3581 43.3657 19.4852 41.1038 21.3014C36.379 25.1196 30.496 27.2173 24.4213 27.2498C18.3028 27.2338 12.3432 25.3002 7.38079 21.721C4.7261 19.8354 2.35257 17.5824 0.331255 15.0295C0.105397 14.7459 -0.0114027 14.3908 0.00201665 14.0284C0.015436 13.6661 0.158187 13.3206 0.404407 13.0544ZM6.42212 11.1294C5.39508 12.0626 4.41957 13.051 3.49989 14.0901C5.15808 16.0302 7.04855 17.7591 9.12874 19.2377C13.5776 22.4521 18.9212 24.1929 24.4098 24.2159C29.7955 24.1827 35.0101 22.3201 39.198 18.9336C40.9245 17.5483 42.476 15.9581 43.8182 14.1979C42.6669 12.9901 41.4456 11.8511 40.1606 10.7867C34.4817 6.10501 28.5217 3.91815 22.7581 4.0375C16.9945 4.15686 11.408 6.57472 6.42212 11.114V11.1294ZM21.7032 8.13016C22.3025 8.13016 22.8883 8.30787 23.3866 8.64082C23.8849 8.97376 24.2732 9.44699 24.5026 10.0007C24.7319 10.5543 24.7919 11.1636 24.675 11.7513C24.5581 12.3391 24.2695 12.879 23.8457 13.3027C23.422 13.7265 22.8821 14.0151 22.2943 14.132C21.7065 14.2489 21.0973 14.1889 20.5436 13.9596C19.99 13.7302 19.5167 13.3419 19.1838 12.8436C18.8509 12.3453 18.6731 11.7595 18.6731 11.1602C18.6726 10.7621 18.7507 10.3679 18.9028 10.0001C19.0549 9.6322 19.278 9.29797 19.5595 9.01651C19.841 8.73504 20.1752 8.51187 20.543 8.35978C20.9109 8.20768 21.3051 8.12966 21.7032 8.13016Z" fill="#F400F5"/>
</svg>
