<svg width="48" height="36" viewBox="0 0 48 36" fill="none" xmlns="http://www.w3.org/2000/svg">
<path fill-rule="evenodd" clip-rule="evenodd" d="M23.6552 10.3168C25.4643 10.3103 27.2196 10.9313 28.6222 12.074C30.0247 13.2166 30.9877 14.8103 31.3469 16.5833C31.7062 18.3564 31.4396 20.1992 30.5925 21.7977C29.7454 23.3962 28.3703 24.6516 26.7014 25.3499C25.0325 26.0481 23.1731 26.1462 21.44 25.6272C19.707 25.1082 18.2074 24.0044 17.197 22.5038C16.1865 21.0032 15.7277 19.1987 15.8985 17.3977C16.0694 15.5967 16.8595 13.9106 18.1341 12.6268C18.8568 11.8969 19.7165 11.3171 20.664 10.9206C21.6115 10.5242 22.6281 10.319 23.6552 10.3168ZM0.404407 17.0544C1.62898 15.5667 2.95669 14.1669 4.37771 12.8655C9.91031 7.8296 16.2014 5.13838 22.7158 4.99977C29.2301 4.86117 35.8407 7.27903 42.101 12.4382C43.8181 13.8615 45.4315 15.4055 46.929 17.0583C47.1617 17.3203 47.2981 17.6539 47.3156 18.0039C47.3331 18.3539 47.2307 18.6994 47.0253 18.9833C45.3593 21.3581 43.3657 23.4852 41.1038 25.3014C36.379 29.1196 30.496 31.2173 24.4213 31.2498C18.3028 31.2338 12.3432 29.3002 7.38079 25.721C4.7261 23.8354 2.35257 21.5824 0.331255 19.0295C0.105397 18.7459 -0.0114027 18.3908 0.00201665 18.0284C0.015436 17.6661 0.158187 17.3206 0.404407 17.0544ZM6.42212 15.1294C5.39508 16.0626 4.41957 17.051 3.49989 18.0901C5.15808 20.0302 7.04855 21.7591 9.12874 23.2377C13.5776 26.4521 18.9212 28.1929 24.4098 28.2159C29.7955 28.1827 35.0101 26.3201 39.198 22.9336C40.9245 21.5483 42.476 19.9581 43.8182 18.1979C42.6669 16.9901 41.4456 15.8511 40.1606 14.7867C34.4817 10.105 28.5217 7.91815 22.7581 8.0375C16.9945 8.15686 11.408 10.5747 6.42212 15.114V15.1294ZM21.7032 12.1302C22.3025 12.1302 22.8883 12.3079 23.3866 12.6408C23.8849 12.9738 24.2732 13.447 24.5026 14.0007C24.7319 14.5543 24.7919 15.1636 24.675 15.7513C24.5581 16.3391 24.2695 16.879 23.8457 17.3027C23.422 17.7265 22.8821 18.0151 22.2943 18.132C21.7065 18.2489 21.0973 18.1889 20.5436 17.9596C19.99 17.7302 19.5167 17.3419 19.1838 16.8436C18.8509 16.3453 18.6731 15.7595 18.6731 15.1602C18.6726 14.7621 18.7507 14.3679 18.9028 14.0001C19.0549 13.6322 19.278 13.298 19.5595 13.0165C19.841 12.735 20.1752 12.5119 20.543 12.3598C20.9109 12.2077 21.3051 12.1297 21.7032 12.1302Z" fill="#262626"/>
</svg>
