<svg width="15" height="15" viewBox="0 0 15 15" fill="none" xmlns="http://www.w3.org/2000/svg">
<path d="M15.0002 7.50018C15.0002 3.35764 11.6423 0 7.50021 0C3.35794 0 0 3.35764 0 7.50018C0 11.6421 3.35794 15 7.50021 15C11.6423 15 15.0002 11.6421 15.0002 7.50018Z" fill="#687181"/>
<path d="M9.531 10.8701C9.48907 10.8087 9.40862 10.7869 9.34144 10.8187C8.59826 11.1705 7.75477 11.5425 7.58921 11.575C7.58504 11.5712 7.57842 11.5644 7.56975 11.5527C7.54731 11.5223 7.5364 11.4826 7.5364 11.4313C7.5364 11.0109 7.85369 9.73207 8.47942 7.63048C9.00701 5.86471 9.06802 5.4991 9.06802 5.37772C9.06802 5.19034 8.99627 5.03201 8.86047 4.91982C8.73147 4.81343 8.55122 4.75952 8.32478 4.75952C7.94811 4.75952 7.51155 4.90252 6.99012 5.19672C6.48485 5.4819 5.92134 5.96493 5.31536 6.63237C5.26792 6.68465 5.26296 6.7628 5.30341 6.82066C5.34393 6.87856 5.41905 6.9006 5.48439 6.87399C5.69713 6.78717 6.76631 6.34919 6.92216 6.25129C7.04977 6.1713 7.16024 6.13069 7.25052 6.13069C7.25375 6.13069 7.25653 6.13081 7.25886 6.131C7.25995 6.13698 7.26098 6.14611 7.26098 6.1592C7.26098 6.25132 7.24202 6.36037 7.20487 6.48278C6.29378 9.43473 5.8509 11.2444 5.8509 12.0152C5.8509 12.2872 5.92651 12.5062 6.07559 12.666C6.22751 12.8291 6.43242 12.9117 6.68465 12.9117C6.95345 12.9117 7.2806 12.7994 7.68475 12.5685C8.07584 12.345 8.67275 11.8534 9.50969 11.0654C9.56389 11.0144 9.57293 10.9316 9.531 10.8701Z" fill="white"/>
<path d="M9.50182 2.31806C9.35293 2.16565 9.1624 2.08838 8.93559 2.08838C8.65322 2.08838 8.40728 2.19997 8.20469 2.42006C8.00533 2.63653 7.90424 2.90215 7.90424 3.20953C7.90424 3.45239 7.9787 3.65365 8.12554 3.80768C8.27434 3.96404 8.4623 4.04331 8.68412 4.04331C8.95494 4.04331 9.19956 3.92547 9.41112 3.69304C9.619 3.46469 9.72442 3.19622 9.72442 2.89511C9.72445 2.66371 9.64957 2.46958 9.50182 2.31806Z" fill="white"/>
</svg>
