<svg width="23" height="29" viewBox="0 0 23 29" fill="none" xmlns="http://www.w3.org/2000/svg">
<g clip-path="url(#clip0_53_15838)">
<path d="M9.13086 6.59905C8.86613 6.55416 8.85353 6.5392 8.97959 6.52424C9.21911 6.47934 9.77378 6.5392 10.1646 6.64395C11.0722 6.89833 11.8916 7.55674 12.7614 8.70896L12.9884 9.0232L13.3161 8.96335C14.7154 8.694 16.1525 8.90349 17.3501 9.5619C17.6779 9.74147 18.1947 10.1006 18.2577 10.1904C18.283 10.2203 18.3208 10.4148 18.346 10.6094C18.4342 11.3127 18.3964 11.8364 18.2073 12.2404C18.1065 12.4649 18.1065 12.5248 18.1695 12.7193C18.2199 12.8689 18.3712 12.9737 18.5099 12.9737C18.8124 12.9737 19.1276 12.405 19.2788 11.612L19.3419 11.2977L19.4553 11.4474C20.0982 12.3003 20.6025 13.4824 20.6781 14.3204L20.7033 14.5449L20.5899 14.3503C20.4008 14.0062 20.2243 13.7817 19.9848 13.5872C19.5562 13.243 19.1024 13.1383 17.9048 13.0635C16.8206 12.9886 16.2029 12.8839 15.5978 12.6445C14.5641 12.2404 14.0347 11.7167 12.8119 9.78636C12.2698 8.93342 11.9294 8.46954 11.5891 8.08048C10.8453 7.22754 10.1015 6.77862 9.13086 6.59905Z" fill="white"/>
<path d="M18.5224 8.49947C18.5476 7.93084 18.6106 7.55675 18.7493 7.21258C18.7997 7.0779 18.8502 6.95819 18.8628 6.95819C18.8754 6.95819 18.8502 7.06294 18.8123 7.18265C18.7115 7.51185 18.6989 7.97573 18.7619 8.49947C18.8502 9.17285 18.888 9.26263 19.4931 9.99586C19.7704 10.34 20.0982 10.774 20.2242 10.9535L20.4385 11.2828L20.2242 11.0433C19.9595 10.7441 19.3544 10.1754 19.2157 10.1006C19.1275 10.0408 19.1149 10.0408 19.0519 10.1156C19.0014 10.1754 18.9888 10.2652 18.9888 10.6992C18.9762 11.3725 18.9006 11.7915 18.7115 12.2255C18.6106 12.4499 18.598 12.405 18.6863 12.1507C18.7493 11.9561 18.7619 11.8663 18.7619 11.2229C18.7619 9.92104 18.6358 9.6068 17.8669 9.08306C17.6778 8.94839 17.35 8.75386 17.1609 8.64911C16.9592 8.54436 16.808 8.45458 16.8206 8.45458C16.8458 8.42465 17.5895 8.67904 17.8795 8.82868C18.3207 9.03817 18.3963 9.05313 18.4468 9.03817C18.4846 8.99328 18.5098 8.87357 18.5224 8.49947Z" fill="white"/>
<path d="M9.6477 10.7291C9.11824 9.8612 8.77787 8.51445 8.85351 7.51187L8.87872 7.19763L9.00478 7.22756C9.23169 7.27245 9.62249 7.45202 9.81158 7.58669C10.3158 7.94583 10.5427 8.43963 10.757 9.66667C10.8201 10.0258 10.9083 10.4448 10.9461 10.5795C11.0092 10.8039 11.2487 11.3277 11.4504 11.6569C11.5891 11.8963 11.5008 12.016 11.1857 11.9861C10.7066 11.9262 10.0637 11.4025 9.6477 10.7291Z" fill="white"/>
<path d="M17.8797 17.2384C15.3837 16.0413 14.5012 15.0088 14.5012 13.258C14.5012 13.0036 14.5138 12.7941 14.5138 12.7941C14.5264 12.7941 14.6147 12.8839 14.7281 12.9887C15.2324 13.4675 15.7997 13.677 17.3754 13.9463C18.2957 14.1109 18.8251 14.2307 19.3042 14.4252C20.8295 15.0237 21.775 16.2508 22.0019 17.9118C22.0649 18.3906 22.0271 19.3034 21.9263 19.7823C21.838 20.1564 21.5859 20.8447 21.5229 20.8597C21.5103 20.8597 21.485 20.7848 21.485 20.6651C21.4598 20.0366 21.1951 19.4381 20.7539 18.9742C20.2244 18.4355 19.5437 18.0315 17.8797 17.2384Z" fill="white"/>
<path d="M16.1146 17.7322C16.0894 17.5078 16.0264 17.2234 15.9886 17.1037L15.9256 16.8793L16.039 17.0439C16.2029 17.2683 16.329 17.5377 16.4424 17.9118C16.5307 18.1961 16.5307 18.2859 16.5307 18.7498C16.5307 19.1987 16.518 19.3034 16.4424 19.5578C16.3163 19.9618 16.1651 20.2461 15.913 20.5604C15.4591 21.114 14.8666 21.4133 14.022 21.548C13.8707 21.563 13.4421 21.6079 13.064 21.6378C12.1185 21.6976 11.4882 21.8174 10.9209 22.0568C10.8453 22.0867 10.7696 22.1166 10.757 22.1017C10.7318 22.0717 11.1226 21.8024 11.4378 21.6228C11.879 21.3684 12.3328 21.2338 13.3287 21.0243C13.8203 20.9345 14.3246 20.8148 14.4506 20.7549C15.6986 20.291 16.3163 19.1388 16.1146 17.7322Z" fill="white"/>
<path d="M17.2619 20.1414C16.9342 19.2884 16.8586 18.4804 17.035 17.7172C17.0603 17.6424 17.0855 17.5676 17.1107 17.5676C17.1359 17.5676 17.2115 17.6125 17.2872 17.6723C17.4384 17.792 17.7536 18.0015 18.5604 18.5253C19.5815 19.1837 20.1614 19.6924 20.5648 20.276C20.9177 20.7848 21.132 21.3684 21.2329 22.0867C21.2959 22.4907 21.2581 23.4633 21.1699 23.8674C20.8925 25.1393 20.2622 26.1568 19.342 26.7404C19.2033 26.8302 19.0898 26.8901 19.0772 26.8901C19.0646 26.8901 19.1151 26.7404 19.1907 26.5609C19.4932 25.7977 19.5311 25.0645 19.3042 24.2415C19.1655 23.7327 18.8755 23.1192 18.2957 22.0867C17.6023 20.8895 17.4384 20.5753 17.2619 20.1414Z" fill="white"/>
<path d="M7.8702 24.7203C8.80306 23.7926 9.95022 23.1342 11.0091 22.9247C11.463 22.8349 12.2193 22.8648 12.6353 22.9995C13.3035 23.209 13.9086 23.6579 14.2237 24.2116C14.5263 24.7503 14.6649 25.2141 14.8036 26.2467C14.854 26.6507 14.9171 27.0697 14.9297 27.1595C15.0305 27.6982 15.2322 28.1171 15.4843 28.3416C15.8751 28.6858 16.5559 28.7007 17.224 28.4015C17.3374 28.3566 17.4383 28.3117 17.4383 28.3266C17.4635 28.3566 17.1231 28.6259 16.8962 28.7606C16.5811 28.9551 16.329 29.015 15.9886 29.015C15.3835 29.015 14.8666 28.6409 14.4506 27.8927C14.3624 27.743 14.1859 27.3091 14.0346 26.9051C13.5934 25.693 13.3665 25.3339 12.8496 24.9298C12.3958 24.5857 11.8159 24.5108 11.3747 24.7652C10.7948 25.0944 10.6436 25.9773 11.047 26.516C11.2108 26.7405 11.5134 26.92 11.7655 26.9649C12.2319 27.0397 12.6353 26.6058 12.6353 26.0521C12.6353 25.693 12.5219 25.4835 12.2193 25.3189C11.8159 25.1094 11.3747 25.3488 11.3873 25.8127C11.3873 26.0072 11.463 26.1269 11.6268 26.2167C11.7277 26.2766 11.7277 26.2766 11.6521 26.2616C11.2865 26.1718 11.1982 25.6331 11.4882 25.289C11.8411 24.87 12.5849 25.0495 12.837 25.6331C12.9379 25.8726 12.9505 26.3514 12.8622 26.6507C12.6479 27.3091 12.0428 27.6533 11.4251 27.4587C11.0091 27.3241 10.8327 27.1894 10.3284 26.5759C9.44597 25.4985 9.1056 25.289 7.84499 25.0645L7.60547 25.0196L7.8702 24.7203Z" fill="white"/>
<path fill-rule="evenodd" clip-rule="evenodd" d="M1.23923 0.643447C4.17647 4.87822 8.70209 11.4623 8.929 11.8215C9.1181 12.1207 9.04246 12.4051 8.7273 12.6146C8.55082 12.7343 8.18524 12.854 8.00875 12.854C7.80705 12.854 7.56754 12.7343 7.40366 12.5397C7.2902 12.4051 6.79856 11.5521 5.68921 9.50206C4.8446 7.93086 4.12605 6.629 4.11344 6.61404C4.06302 6.58411 4.06302 6.58411 5.60097 9.84623C6.57165 11.8963 6.8868 12.6295 6.8868 12.7193C6.8868 12.9138 6.83638 13.0186 6.63468 13.2879C6.29431 13.7368 6.14304 14.2456 6.02958 15.3081C5.90352 16.4902 5.56315 17.3282 4.59248 18.7497C4.0252 19.5877 3.93695 19.7374 3.79829 20.0815C3.6218 20.5005 3.57137 20.7399 3.54616 21.2786C3.52095 21.8473 3.57137 22.2064 3.71004 22.7451C3.8361 23.2239 3.97477 23.5382 4.31514 24.1517C4.60508 24.6904 4.78157 25.0944 4.78157 25.2441C4.78157 25.3638 4.80678 25.3638 5.2606 25.2441C6.34474 24.9448 7.23978 24.436 7.73142 23.8075C8.03396 23.4185 8.1096 23.209 8.1096 22.6703C8.1096 22.3261 8.097 22.2513 8.02136 22.0418C7.8953 21.7126 7.65578 21.4432 7.13893 21.0243C6.45819 20.4706 6.16825 20.0217 6.09261 19.4231C6.02958 18.9143 6.10522 18.5702 6.4834 17.6275C6.8742 16.6548 6.97505 16.2508 7.03808 15.2632C7.07589 14.6347 7.13893 14.3803 7.2902 14.1858C7.45408 13.9763 7.59275 13.9014 7.98354 13.8416C8.62646 13.7368 9.04246 13.5423 9.37022 13.1682C9.66016 12.854 9.78623 12.5397 9.79883 12.0759L9.81144 11.7317L9.64756 11.5222C9.05507 10.7141 0.848438 0 0.810619 0C0.798013 0 0.999712 0.284314 1.23923 0.643447ZM5.10933 21.9221C5.248 21.6378 5.17236 21.2786 4.94545 21.0991C4.73114 20.9345 4.40338 21.0093 4.40338 21.2337C4.40338 21.2936 4.42859 21.3535 4.50423 21.3834C4.61769 21.4582 4.63029 21.533 4.54205 21.6976C4.45381 21.8622 4.45381 22.0119 4.56726 22.1166C4.74375 22.2812 4.98327 22.1914 5.10933 21.9221Z" fill="white"/>
<path fill-rule="evenodd" clip-rule="evenodd" d="M10.215 14.0511C9.91243 14.1559 9.62249 14.5449 9.53424 14.934C9.48382 15.1734 9.50903 15.6073 9.59728 15.742C9.73594 15.9515 9.86201 16.0114 10.215 16.0114C10.9083 16.0114 11.5008 15.6522 11.5638 15.2183C11.6269 14.8592 11.3621 14.3653 10.9966 14.1409C10.8075 14.0212 10.4167 13.9763 10.215 14.0511ZM11.0218 14.7993C11.1226 14.6197 11.0848 14.4252 10.8957 14.2905C10.5553 14.0361 10.0385 14.2456 10.0385 14.6347C10.0385 14.8292 10.3032 15.0387 10.5553 15.0387C10.7192 15.0387 10.9461 14.919 11.0218 14.7993Z" fill="white"/>
</g>
<defs>
<clipPath id="clip0_53_15838">
<rect width="21.2162" height="29" fill="white" transform="translate(0.810791)"/>
</clipPath>
</defs>
</svg>
