<svg width="18" height="12" viewBox="0 0 18 12" fill="none" xmlns="http://www.w3.org/2000/svg">
<path d="M0.149209 5.08354C0.602487 4.53362 1.09352 4.01595 1.61874 3.53427C2.52213 2.6993 3.55025 2.01037 4.66601 1.49231L4.09643 0.637934L5.07753 0L5.7767 1.06512C6.62584 0.793664 7.50977 0.646422 8.40105 0.627966C10.799 0.578128 13.2553 1.46953 15.5707 3.37906C16.2058 3.90545 16.8025 4.47648 17.3563 5.08781C17.4424 5.18473 17.4928 5.30809 17.4993 5.43754C17.5058 5.56699 17.4679 5.69477 17.3919 5.79979C16.7759 6.67814 16.0391 7.46526 15.2033 8.13793C14.1481 8.98516 12.9323 9.61001 11.6292 9.97484L12.0265 10.5786L11.0525 11.2151L10.4074 10.2311C9.95368 10.2966 9.49599 10.3309 9.03756 10.3337C6.77296 10.3286 4.56688 9.614 2.72942 8.29029C1.74789 7.59197 0.870101 6.75829 0.122154 5.81403C0.0386198 5.70913 -0.00457848 5.57778 0.000384676 5.44377C0.00534783 5.30977 0.0581441 5.18197 0.149209 5.08354ZM2.74082 4.04547L5.86498 8.66764C6.40517 8.86054 6.96189 9.00353 7.52817 9.09483L3.7262 3.30359C3.38438 3.53262 3.05542 3.78029 2.74082 4.04547ZM4.53358 8.08097L2.15842 4.56806C1.86223 4.85285 1.57412 5.15331 1.29407 5.46943C1.90784 6.18567 2.60698 6.82408 3.3759 7.37041C3.74613 7.63232 4.13282 7.87014 4.53358 8.08239V8.08097ZM4.39118 2.89491L8.52636 9.20163C8.69297 9.21017 8.86099 9.21302 9.0276 9.21302C9.25686 9.21302 9.48469 9.2002 9.71252 9.18169L5.2897 2.44494C4.9813 2.57944 4.67997 2.72962 4.38691 2.89491H4.39118ZM6.42317 2.04053L7.11949 3.10138C7.43583 2.87188 7.79547 2.70898 8.17662 2.62254C8.55776 2.5361 8.95249 2.52793 9.33689 2.59853C9.72129 2.66912 10.0874 2.817 10.4129 3.03322C10.7385 3.24944 11.0168 3.5295 11.2309 3.85642C11.4451 4.18335 11.5907 4.55035 11.6588 4.93518C11.727 5.32002 11.7163 5.71469 11.6275 6.09528C11.5386 6.47587 11.3735 6.83447 11.142 7.14936C10.9105 7.46424 10.6174 7.72886 10.2807 7.92718L10.9727 8.98234C12.2611 8.67905 13.4653 8.09131 14.497 7.26219C15.1356 6.75039 15.7094 6.16271 16.2058 5.51215C15.78 5.06498 15.3283 4.64323 14.853 4.2491C12.7527 2.51471 10.5484 1.70875 8.41672 1.74862C7.74248 1.76414 7.0728 1.86364 6.42317 2.04481V2.04053ZM7.28609 3.35627L8.51497 5.22736C8.64725 5.15089 8.7625 5.04818 8.85363 4.92554C8.94476 4.8029 9.00985 4.66292 9.0449 4.5142C9.07995 4.36549 9.08421 4.21117 9.05744 4.06075C9.03066 3.91032 8.9734 3.76696 8.88919 3.63947C8.80498 3.51198 8.69558 3.40306 8.56773 3.3194C8.43988 3.23574 8.29627 3.17911 8.14572 3.15298C7.99518 3.12686 7.84089 3.1318 7.69232 3.16749C7.54376 3.20319 7.40407 3.26888 7.28182 3.36054L7.28609 3.35627Z" fill="#7F819E"/>
</svg>
