<svg width="20" height="20" viewBox="0 0 20 20" fill="none" xmlns="http://www.w3.org/2000/svg">
<path d="M20 10.0001C20 4.4768 15.5228 0 10.0002 0C4.4772 0 0 4.4768 0 10.0001C0 15.5226 4.4772 19.9998 10.0002 19.9998C15.5228 19.9998 20 15.5226 20 10.0001Z" fill="#687181"/>
<path d="M12.7076 14.4934C12.6517 14.4114 12.5445 14.3823 12.4549 14.4247C11.464 14.8938 10.3394 15.3898 10.1186 15.4331C10.1131 15.4281 10.1042 15.4191 10.0927 15.4034C10.0628 15.3629 10.0482 15.3099 10.0482 15.2415C10.0482 14.681 10.4713 12.9759 11.3056 10.1738C12.009 7.81951 12.0903 7.33204 12.0903 7.1702C12.0903 6.92036 11.9947 6.70926 11.8136 6.55967C11.6416 6.41782 11.4013 6.34595 11.0994 6.34595C10.5971 6.34595 10.0151 6.53661 9.31985 6.92887C8.64616 7.30911 7.89482 7.95314 7.08686 8.84306C7.02361 8.91275 7.017 9.01695 7.07093 9.0941C7.12495 9.1713 7.22512 9.20068 7.31223 9.16521C7.59589 9.04944 9.02144 8.46547 9.22924 8.33495C9.39938 8.22829 9.54668 8.17416 9.66704 8.17416C9.67135 8.17416 9.67506 8.17432 9.67817 8.17456C9.67962 8.18254 9.68099 8.19471 9.68099 8.21217C9.68099 8.33499 9.65571 8.48039 9.60617 8.6436C8.3914 12.5795 7.8009 14.9923 7.8009 16.02C7.8009 16.3828 7.90172 16.6748 8.10048 16.8878C8.30304 17.1052 8.57626 17.2154 8.91256 17.2154C9.27096 17.2154 9.70715 17.0657 10.246 16.7578C10.7675 16.4598 11.5633 15.8043 12.6792 14.7537C12.7515 14.6857 12.7636 14.5753 12.7076 14.4934Z" fill="white"/>
<path d="M12.6687 3.09041C12.4701 2.88721 12.2161 2.78418 11.9137 2.78418C11.5372 2.78418 11.2093 2.93296 10.9392 3.22642C10.6734 3.51504 10.5386 3.8692 10.5386 4.27903C10.5386 4.60283 10.6379 4.87118 10.8336 5.07655C11.032 5.28504 11.2827 5.39073 11.5784 5.39073C11.9395 5.39073 12.2656 5.2336 12.5477 4.9237C12.8249 4.61924 12.9655 4.26129 12.9655 3.85981C12.9655 3.55127 12.8657 3.29245 12.6687 3.09041Z" fill="white"/>
</svg>
