<svg width="20" height="20" viewBox="0 0 20 20" fill="none" xmlns="http://www.w3.org/2000/svg">
<path d="M20 10.0001C20 4.4768 15.5228 0 10.0002 0C4.4772 0 0 4.4768 0 10.0001C0 15.5226 4.4772 19.9998 10.0002 19.9998C15.5228 19.9998 20 15.5226 20 10.0001Z" fill="#F3AC3D"/>
<path d="M12.7078 14.4936C12.6519 14.4117 12.5446 14.3825 12.455 14.425C11.4641 14.8941 10.3395 15.39 10.1188 15.4333C10.1132 15.4284 10.1044 15.4193 10.0928 15.4036C10.0629 15.3631 10.0483 15.3102 10.0483 15.2418C10.0483 14.6813 10.4714 12.9762 11.3057 10.1741C12.0091 7.81975 12.0905 7.33229 12.0905 7.17044C12.0905 6.92061 11.9948 6.7095 11.8137 6.55991C11.6417 6.41806 11.4014 6.34619 11.0995 6.34619C10.5973 6.34619 10.0152 6.53686 9.31998 6.92911C8.64628 7.30935 7.89495 7.95338 7.08698 8.8433C7.02373 8.91299 7.01712 9.0172 7.07106 9.09435C7.12507 9.17154 7.22524 9.20093 7.31235 9.16545C7.59601 9.04969 9.02156 8.46572 9.22936 8.3352C9.39951 8.22854 9.5468 8.1744 9.66716 8.1744C9.67148 8.1744 9.67519 8.17456 9.67829 8.1748C9.67974 8.18278 9.68111 8.19496 9.68111 8.21241C9.68111 8.33524 9.65584 8.48063 9.6063 8.64385C8.39152 12.5797 7.80102 14.9925 7.80102 16.0203C7.80102 16.383 7.90184 16.675 8.10061 16.8881C8.30316 17.1055 8.57638 17.2157 8.91269 17.2157C9.27108 17.2157 9.70727 17.066 10.2461 16.758C10.7676 16.46 11.5635 15.8045 12.6793 14.7539C12.7516 14.6859 12.7637 14.5755 12.7078 14.4936Z" fill="white"/>
<path d="M12.6689 3.09041C12.4704 2.88721 12.2163 2.78418 11.9139 2.78418C11.5375 2.78418 11.2095 2.93296 10.9394 3.22642C10.6736 3.51504 10.5388 3.8692 10.5388 4.27903C10.5388 4.60283 10.6381 4.87118 10.8339 5.07655C11.0323 5.28504 11.2829 5.39073 11.5786 5.39073C11.9397 5.39073 12.2659 5.2336 12.548 4.9237C12.8251 4.61924 12.9657 4.26129 12.9657 3.85981C12.9657 3.55127 12.8659 3.29245 12.6689 3.09041Z" fill="white"/>
</svg>
